G75*
G70*
%OFA0B0*%
%FSLAX24Y24*%
%IPPOS*%
%LPD*%
%AMOC8*
5,1,8,0,0,1.08239X$1,22.5*
%
%ADD10C,0.0110*%
%ADD11C,0.0050*%
%ADD12C,0.0080*%
%ADD13C,0.0020*%
%ADD14C,0.0100*%
%ADD15C,0.0040*%
%ADD16C,0.0060*%
%ADD17C,0.0030*%
D10*
X012956Y002565D02*
X012956Y003156D01*
X013349Y002565D01*
X013349Y003156D01*
X013600Y003057D02*
X013600Y002663D01*
X013699Y002565D01*
X013896Y002565D01*
X013994Y002663D01*
X013994Y003057D01*
X013896Y003156D01*
X013699Y003156D01*
X013600Y003057D01*
X013699Y003665D02*
X013896Y003665D01*
X013994Y003763D01*
X013699Y003665D02*
X013600Y003763D01*
X013600Y004157D01*
X013699Y004256D01*
X013896Y004256D01*
X013994Y004157D01*
X013349Y004256D02*
X013349Y003665D01*
X012956Y004256D01*
X012956Y003665D01*
X016755Y003414D02*
X017346Y003021D01*
X017755Y003121D02*
X018346Y003514D01*
X018346Y003121D02*
X017755Y003514D01*
X017346Y003414D02*
X016755Y003021D01*
X016755Y002770D02*
X016755Y002376D01*
X016755Y002573D02*
X017346Y002573D01*
X017755Y002476D02*
X017755Y002771D01*
X017854Y002870D01*
X018051Y002870D01*
X018149Y002771D01*
X018149Y002476D01*
X018346Y002476D02*
X017755Y002476D01*
X018149Y002673D02*
X018346Y002870D01*
X018755Y002859D02*
X019149Y002859D01*
X019346Y002662D01*
X019149Y002465D01*
X018755Y002465D01*
X018854Y003110D02*
X018755Y003208D01*
X018755Y003405D01*
X018854Y003503D01*
X018854Y003754D02*
X018755Y003853D01*
X018755Y004049D01*
X018854Y004148D01*
X019247Y004148D02*
X019346Y004049D01*
X019346Y003853D01*
X019247Y003754D01*
X018854Y003754D01*
X019247Y003503D02*
X019346Y003405D01*
X019346Y003208D01*
X019247Y003110D01*
X018854Y003110D01*
X019755Y003110D02*
X020346Y003503D01*
X019755Y003503D01*
X019755Y003754D02*
X019755Y004049D01*
X019854Y004148D01*
X020247Y004148D01*
X020346Y004049D01*
X020346Y003754D01*
X019755Y003754D01*
X019755Y003110D02*
X020346Y003110D01*
X020247Y002859D02*
X020051Y002859D01*
X020051Y002662D01*
X020247Y002859D02*
X020346Y002760D01*
X020346Y002563D01*
X020247Y002465D01*
X019854Y002465D01*
X019755Y002563D01*
X019755Y002760D01*
X019854Y002859D01*
X034156Y003756D02*
X034549Y003756D01*
X034353Y003756D02*
X034353Y003165D01*
X034800Y003165D02*
X034800Y003756D01*
X034997Y003559D01*
X035194Y003756D01*
X035194Y003165D01*
X035445Y003165D02*
X035445Y003756D01*
X035740Y003756D01*
X035839Y003657D01*
X035839Y003460D01*
X035740Y003362D01*
X035445Y003362D01*
X036089Y003559D02*
X036286Y003756D01*
X036286Y003165D01*
X036089Y003165D02*
X036483Y003165D01*
X036734Y003263D02*
X037128Y003657D01*
X037128Y003263D01*
X037029Y003165D01*
X036832Y003165D01*
X036734Y003263D01*
X036734Y003657D01*
X036832Y003756D01*
X037029Y003756D01*
X037128Y003657D01*
X037378Y003657D02*
X037477Y003756D01*
X037674Y003756D01*
X037772Y003657D01*
X037772Y003559D01*
X037378Y003165D01*
X037772Y003165D01*
X004539Y012263D02*
X004440Y012165D01*
X004243Y012165D01*
X004145Y012263D01*
X004145Y012657D01*
X004243Y012756D01*
X004440Y012756D01*
X004539Y012657D01*
X004539Y012460D02*
X004342Y012460D01*
X004539Y012460D02*
X004539Y012263D01*
X003894Y012165D02*
X003894Y012756D01*
X003500Y012756D02*
X003894Y012165D01*
X003500Y012165D02*
X003500Y012756D01*
X003249Y012657D02*
X003249Y012460D01*
X003151Y012362D01*
X002856Y012362D01*
X003053Y012362D02*
X003249Y012165D01*
X002856Y012165D02*
X002856Y012756D01*
X003151Y012756D01*
X003249Y012657D01*
D11*
X000826Y001180D02*
X000871Y001135D01*
X000961Y001135D01*
X001006Y001180D01*
X001006Y001360D01*
X000826Y001180D01*
X000826Y001360D01*
X000871Y001405D01*
X000961Y001405D01*
X001006Y001360D01*
X001120Y001315D02*
X001210Y001405D01*
X001210Y001135D01*
X001120Y001135D02*
X001301Y001135D01*
X001415Y001270D02*
X001595Y001270D01*
X001710Y001360D02*
X001755Y001405D01*
X001845Y001405D01*
X001890Y001360D01*
X001890Y001315D01*
X001710Y001135D01*
X001890Y001135D01*
X002004Y001135D02*
X002184Y001315D01*
X002184Y001360D01*
X002139Y001405D01*
X002049Y001405D01*
X002004Y001360D01*
X002004Y001135D02*
X002184Y001135D01*
X002299Y001270D02*
X002479Y001270D01*
X002594Y001315D02*
X002684Y001405D01*
X002684Y001135D01*
X002594Y001135D02*
X002774Y001135D01*
X002888Y001135D02*
X003068Y001135D01*
X002978Y001135D02*
X002978Y001405D01*
X002888Y001315D01*
X003478Y001135D02*
X003658Y001405D01*
X004067Y001405D02*
X004067Y001135D01*
X004247Y001135D02*
X004247Y001405D01*
X004157Y001315D01*
X004067Y001405D01*
X004362Y001405D02*
X004362Y001135D01*
X004452Y001225D01*
X004542Y001135D01*
X004542Y001405D01*
X004656Y001360D02*
X004656Y001180D01*
X004701Y001135D01*
X004791Y001135D01*
X004836Y001180D01*
X004836Y001270D01*
X004746Y001270D01*
X004656Y001360D02*
X004701Y001405D01*
X004791Y001405D01*
X004836Y001360D01*
X003461Y001935D02*
X003281Y001935D01*
X003371Y001935D02*
X003371Y002205D01*
X003281Y002115D01*
X002872Y002070D02*
X002872Y001935D01*
X002872Y002070D02*
X002827Y002115D01*
X002692Y002115D01*
X002692Y001935D01*
X002577Y001980D02*
X002532Y001935D01*
X002442Y001935D01*
X002397Y001980D01*
X002397Y002070D01*
X002442Y002115D01*
X002532Y002115D01*
X002577Y002070D01*
X002577Y001980D01*
X002291Y001935D02*
X002201Y001935D01*
X002246Y001935D02*
X002246Y002115D01*
X002201Y002115D01*
X002246Y002205D02*
X002246Y002250D01*
X002086Y002115D02*
X001951Y002115D01*
X001906Y002070D01*
X001951Y002025D01*
X002041Y002025D01*
X002086Y001980D01*
X002041Y001935D01*
X001906Y001935D01*
X001800Y001935D02*
X001710Y001935D01*
X001755Y001935D02*
X001755Y002115D01*
X001710Y002115D01*
X001755Y002205D02*
X001755Y002250D01*
X001595Y002115D02*
X001505Y001935D01*
X001415Y002115D01*
X001301Y002070D02*
X001301Y002025D01*
X001120Y002025D01*
X001120Y001980D02*
X001120Y002070D01*
X001165Y002115D01*
X001256Y002115D01*
X001301Y002070D01*
X001256Y001935D02*
X001165Y001935D01*
X001120Y001980D01*
X001006Y001935D02*
X000916Y002025D01*
X000961Y002025D02*
X000826Y002025D01*
X000826Y001935D02*
X000826Y002205D01*
X000961Y002205D01*
X001006Y002160D01*
X001006Y002070D01*
X000961Y002025D01*
X001006Y002635D02*
X000916Y002725D01*
X000961Y002725D02*
X000826Y002725D01*
X000826Y002635D02*
X000826Y002905D01*
X000961Y002905D01*
X001006Y002860D01*
X001006Y002770D01*
X000961Y002725D01*
X001120Y002680D02*
X001165Y002725D01*
X001301Y002725D01*
X001301Y002770D02*
X001301Y002635D01*
X001165Y002635D01*
X001120Y002680D01*
X001165Y002815D02*
X001256Y002815D01*
X001301Y002770D01*
X001415Y002770D02*
X001460Y002815D01*
X001595Y002815D01*
X001550Y002725D02*
X001460Y002725D01*
X001415Y002770D01*
X001415Y002635D02*
X001550Y002635D01*
X001595Y002680D01*
X001550Y002725D01*
X001710Y002680D02*
X001755Y002635D01*
X001890Y002635D01*
X002004Y002680D02*
X002049Y002725D01*
X002184Y002725D01*
X002184Y002770D02*
X002184Y002635D01*
X002049Y002635D01*
X002004Y002680D01*
X002049Y002815D02*
X002139Y002815D01*
X002184Y002770D01*
X002299Y002635D02*
X002389Y002635D01*
X002344Y002635D02*
X002344Y002905D01*
X002299Y002905D01*
X001890Y002815D02*
X001755Y002815D01*
X001710Y002770D01*
X001710Y002680D01*
X002790Y002635D02*
X002925Y002635D01*
X002970Y002680D01*
X002970Y002860D01*
X002925Y002905D01*
X002790Y002905D01*
X002790Y002635D01*
X003085Y002680D02*
X003085Y002770D01*
X003130Y002815D01*
X003220Y002815D01*
X003265Y002770D01*
X003265Y002725D01*
X003085Y002725D01*
X003085Y002680D02*
X003130Y002635D01*
X003220Y002635D01*
X003379Y002815D02*
X003469Y002635D01*
X003559Y002815D01*
X003969Y002815D02*
X003969Y002860D01*
X004014Y002905D01*
X004104Y002905D01*
X004149Y002860D01*
X004104Y002770D02*
X004149Y002725D01*
X004149Y002680D01*
X004104Y002635D01*
X004014Y002635D01*
X003969Y002680D01*
X004014Y002770D02*
X003969Y002815D01*
X004014Y002770D02*
X004104Y002770D01*
X004263Y002770D02*
X004308Y002815D01*
X004398Y002815D01*
X004443Y002770D01*
X004443Y002635D01*
X004558Y002635D02*
X004648Y002635D01*
X004603Y002635D02*
X004603Y002815D01*
X004558Y002815D01*
X004603Y002905D02*
X004603Y002950D01*
X004754Y002770D02*
X004799Y002815D01*
X004889Y002815D01*
X004934Y002770D01*
X004934Y002725D01*
X004754Y002725D01*
X004754Y002680D02*
X004754Y002770D01*
X004754Y002680D02*
X004799Y002635D01*
X004889Y002635D01*
X005049Y002635D02*
X005139Y002635D01*
X005094Y002635D02*
X005094Y002905D01*
X005049Y002905D01*
X005245Y002770D02*
X005290Y002815D01*
X005426Y002815D01*
X005426Y002905D02*
X005426Y002635D01*
X005290Y002635D01*
X005245Y002680D01*
X005245Y002770D01*
X004263Y002905D02*
X004263Y002635D01*
X014305Y006009D02*
X022474Y006009D01*
X022474Y010103D01*
X014305Y010103D01*
X014305Y006009D01*
X010261Y009230D02*
X010216Y009185D01*
X010125Y009185D01*
X010080Y009230D01*
X009966Y009185D02*
X009876Y009275D01*
X009921Y009275D02*
X009786Y009275D01*
X009786Y009185D02*
X009786Y009455D01*
X009921Y009455D01*
X009966Y009410D01*
X009966Y009320D01*
X009921Y009275D01*
X010080Y009410D02*
X010125Y009455D01*
X010216Y009455D01*
X010261Y009410D01*
X010261Y009365D01*
X010216Y009320D01*
X010261Y009275D01*
X010261Y009230D01*
X010216Y009320D02*
X010170Y009320D01*
X009061Y009275D02*
X009061Y009230D01*
X009016Y009185D01*
X008925Y009185D01*
X008880Y009230D01*
X008880Y009275D01*
X008925Y009320D01*
X009016Y009320D01*
X009061Y009275D01*
X009016Y009320D02*
X009061Y009365D01*
X009061Y009410D01*
X009016Y009455D01*
X008925Y009455D01*
X008880Y009410D01*
X008880Y009365D01*
X008925Y009320D01*
X008766Y009320D02*
X008721Y009275D01*
X008586Y009275D01*
X008676Y009275D02*
X008766Y009185D01*
X008766Y009320D02*
X008766Y009410D01*
X008721Y009455D01*
X008586Y009455D01*
X008586Y009185D01*
X009125Y010560D02*
X007476Y010560D01*
X007414Y011110D02*
X007256Y011110D01*
X008188Y011110D02*
X008414Y011110D01*
X007476Y010560D02*
X007441Y010608D01*
X007408Y010658D01*
X007377Y010710D01*
X007350Y010764D01*
X007326Y010819D01*
X007306Y010876D01*
X007288Y010933D01*
X007274Y010991D01*
X007263Y011050D01*
X007256Y011110D01*
X008611Y012213D02*
X008671Y012193D01*
X008730Y012169D01*
X008787Y012141D01*
X008842Y012110D01*
X008896Y012075D01*
X008947Y012038D01*
X008996Y011997D01*
X009042Y011953D01*
X009086Y011907D01*
X009127Y011858D01*
X009165Y011807D01*
X009199Y011754D01*
X009231Y011698D01*
X009258Y011641D01*
X009283Y011582D01*
X009303Y011522D01*
X009321Y011461D01*
X009334Y011399D01*
X009343Y011336D01*
X009349Y011273D01*
X009351Y011209D01*
X009349Y011145D01*
X009343Y011082D01*
X009334Y011019D01*
X009320Y010957D01*
X009303Y010896D01*
X009282Y010836D01*
X009258Y010777D01*
X009230Y010720D01*
X009198Y010664D01*
X009163Y010611D01*
X009126Y010560D01*
X009188Y011110D02*
X009346Y011110D01*
X007991Y012213D02*
X007932Y012193D01*
X007875Y012170D01*
X007818Y012143D01*
X007764Y012112D01*
X007711Y012079D01*
X007661Y012042D01*
X007612Y012003D01*
X007567Y011960D01*
X007523Y011915D01*
X007483Y011868D01*
X007445Y011818D01*
X007410Y011766D01*
X007379Y011712D01*
X007351Y011657D01*
X007326Y011600D01*
X007305Y011541D01*
X007287Y011481D01*
X007272Y011420D01*
X007262Y011359D01*
X007255Y011297D01*
X007251Y011235D01*
X007252Y011172D01*
X007256Y011110D01*
X005116Y009255D02*
X004980Y009120D01*
X005161Y009120D01*
X005116Y008985D02*
X005116Y009255D01*
X004866Y009210D02*
X004821Y009255D01*
X004731Y009255D01*
X004686Y009210D01*
X004686Y009030D01*
X004731Y008985D01*
X004821Y008985D01*
X004866Y009030D01*
X002761Y009030D02*
X002716Y008985D01*
X002625Y008985D01*
X002580Y009030D01*
X002580Y009120D02*
X002670Y009165D01*
X002716Y009165D01*
X002761Y009120D01*
X002761Y009030D01*
X002580Y009120D02*
X002580Y009255D01*
X002761Y009255D01*
X002466Y009210D02*
X002421Y009255D01*
X002331Y009255D01*
X002286Y009210D01*
X002286Y009030D01*
X002331Y008985D01*
X002421Y008985D01*
X002466Y009030D01*
X007256Y014110D02*
X007414Y014110D01*
X007476Y014660D02*
X009125Y014660D01*
X009188Y014110D02*
X009346Y014110D01*
X008414Y014110D02*
X008188Y014110D01*
X009126Y014660D02*
X009161Y014612D01*
X009194Y014562D01*
X009225Y014510D01*
X009252Y014456D01*
X009276Y014401D01*
X009296Y014344D01*
X009314Y014287D01*
X009328Y014229D01*
X009339Y014170D01*
X009346Y014110D01*
X007991Y013007D02*
X007931Y013027D01*
X007872Y013051D01*
X007815Y013079D01*
X007760Y013110D01*
X007706Y013145D01*
X007655Y013182D01*
X007606Y013223D01*
X007560Y013267D01*
X007516Y013313D01*
X007475Y013362D01*
X007437Y013413D01*
X007403Y013466D01*
X007371Y013522D01*
X007344Y013579D01*
X007319Y013638D01*
X007299Y013698D01*
X007281Y013759D01*
X007268Y013821D01*
X007259Y013884D01*
X007253Y013947D01*
X007251Y014011D01*
X007253Y014075D01*
X007259Y014138D01*
X007268Y014201D01*
X007282Y014263D01*
X007299Y014324D01*
X007320Y014384D01*
X007344Y014443D01*
X007372Y014500D01*
X007404Y014556D01*
X007439Y014609D01*
X007476Y014660D01*
X009346Y014110D02*
X009350Y014048D01*
X009351Y013985D01*
X009347Y013923D01*
X009340Y013861D01*
X009330Y013800D01*
X009315Y013739D01*
X009297Y013679D01*
X009276Y013620D01*
X009251Y013563D01*
X009223Y013508D01*
X009192Y013454D01*
X009157Y013402D01*
X009119Y013352D01*
X009079Y013305D01*
X009035Y013260D01*
X008990Y013217D01*
X008941Y013178D01*
X008891Y013141D01*
X008838Y013108D01*
X008784Y013077D01*
X008727Y013050D01*
X008670Y013027D01*
X008611Y013007D01*
X011786Y013285D02*
X011786Y013555D01*
X011921Y013555D01*
X011966Y013510D01*
X011966Y013420D01*
X011921Y013375D01*
X011786Y013375D01*
X011876Y013375D02*
X011966Y013285D01*
X012080Y013285D02*
X012261Y013465D01*
X012261Y013510D01*
X012216Y013555D01*
X012125Y013555D01*
X012080Y013510D01*
X012080Y013285D02*
X012261Y013285D01*
X012216Y011855D02*
X012261Y011810D01*
X012261Y011765D01*
X012216Y011720D01*
X012261Y011675D01*
X012261Y011630D01*
X012216Y011585D01*
X012125Y011585D01*
X012080Y011630D01*
X011966Y011630D02*
X011921Y011585D01*
X011831Y011585D01*
X011786Y011630D01*
X011786Y011810D01*
X011831Y011855D01*
X011921Y011855D01*
X011966Y011810D01*
X012080Y011810D02*
X012125Y011855D01*
X012216Y011855D01*
X012216Y011720D02*
X012170Y011720D01*
X012080Y014685D02*
X012261Y014865D01*
X012261Y014910D01*
X012216Y014955D01*
X012125Y014955D01*
X012080Y014910D01*
X011966Y014910D02*
X011921Y014955D01*
X011831Y014955D01*
X011786Y014910D01*
X011786Y014730D01*
X011831Y014685D01*
X011921Y014685D01*
X011966Y014730D01*
X012080Y014685D02*
X012261Y014685D01*
X020526Y011550D02*
X020796Y011550D01*
X020796Y011460D02*
X020796Y011641D01*
X020616Y011460D02*
X020526Y011550D01*
X020526Y011346D02*
X020526Y011166D01*
X020526Y011256D02*
X020796Y011256D01*
X022446Y011305D02*
X022446Y011035D01*
X022446Y011125D02*
X022581Y011125D01*
X022626Y011170D01*
X022626Y011260D01*
X022581Y011305D01*
X022446Y011305D01*
X022536Y011125D02*
X022626Y011035D01*
X022740Y011035D02*
X022740Y011080D01*
X022921Y011260D01*
X022921Y011305D01*
X022740Y011305D01*
X020529Y009755D02*
X020439Y009665D01*
X020324Y009710D02*
X020324Y009755D01*
X020324Y009710D02*
X020234Y009620D01*
X020234Y009485D01*
X020234Y009620D02*
X020144Y009710D01*
X020144Y009755D01*
X020030Y009665D02*
X020030Y009485D01*
X020030Y009620D02*
X019850Y009620D01*
X019850Y009665D02*
X019850Y009485D01*
X019735Y009485D02*
X019555Y009485D01*
X019555Y009755D01*
X019441Y009755D02*
X019260Y009755D01*
X019260Y009485D01*
X019441Y009485D01*
X019350Y009620D02*
X019260Y009620D01*
X019146Y009620D02*
X019146Y009710D01*
X019101Y009755D01*
X018966Y009755D01*
X018966Y009485D01*
X018966Y009575D02*
X019101Y009575D01*
X019146Y009620D01*
X019056Y009575D02*
X019146Y009485D01*
X019850Y009665D02*
X019940Y009755D01*
X020030Y009665D01*
X020439Y009485D02*
X020619Y009485D01*
X020529Y009485D02*
X020529Y009755D01*
X024436Y009285D02*
X024436Y009015D01*
X024436Y009105D02*
X024572Y009105D01*
X024617Y009150D01*
X024617Y009240D01*
X024572Y009285D01*
X024436Y009285D01*
X024527Y009105D02*
X024617Y009015D01*
X024731Y009060D02*
X024776Y009015D01*
X024866Y009015D01*
X024911Y009060D01*
X024911Y009150D01*
X024866Y009195D01*
X024821Y009195D01*
X024731Y009150D01*
X024731Y009285D01*
X024911Y009285D01*
X025626Y009275D02*
X025626Y009005D01*
X025626Y009095D02*
X025761Y009095D01*
X025806Y009140D01*
X025806Y009230D01*
X025761Y009275D01*
X025626Y009275D01*
X025716Y009095D02*
X025806Y009005D01*
X025920Y009140D02*
X026101Y009140D01*
X026056Y009005D02*
X026056Y009275D01*
X025920Y009140D01*
X027366Y009145D02*
X027366Y008875D01*
X027366Y008965D02*
X027501Y008965D01*
X027546Y009010D01*
X027546Y009100D01*
X027501Y009145D01*
X027366Y009145D01*
X027456Y008965D02*
X027546Y008875D01*
X027660Y008920D02*
X027705Y008875D01*
X027796Y008875D01*
X027841Y008920D01*
X027841Y008965D01*
X027796Y009010D01*
X027660Y009010D01*
X027660Y008920D01*
X027660Y009010D02*
X027750Y009100D01*
X027841Y009145D01*
X028286Y009055D02*
X028286Y008785D01*
X028286Y008875D02*
X028421Y008875D01*
X028466Y008920D01*
X028466Y009010D01*
X028421Y009055D01*
X028286Y009055D01*
X028376Y008875D02*
X028466Y008785D01*
X028580Y008785D02*
X028761Y008785D01*
X028670Y008785D02*
X028670Y009055D01*
X028580Y008965D01*
X028584Y011385D02*
X028404Y011385D01*
X028584Y011565D01*
X028584Y011610D01*
X028539Y011655D01*
X028449Y011655D01*
X028404Y011610D01*
X028290Y011610D02*
X028290Y011565D01*
X028245Y011520D01*
X028290Y011475D01*
X028290Y011430D01*
X028245Y011385D01*
X028155Y011385D01*
X028110Y011430D01*
X027995Y011385D02*
X027815Y011385D01*
X027995Y011565D01*
X027995Y011610D01*
X027950Y011655D01*
X027860Y011655D01*
X027815Y011610D01*
X027701Y011655D02*
X027520Y011655D01*
X027610Y011655D02*
X027610Y011385D01*
X027316Y011520D02*
X027226Y011520D01*
X027226Y011385D02*
X027226Y011655D01*
X027406Y011655D01*
X028110Y011610D02*
X028155Y011655D01*
X028245Y011655D01*
X028290Y011610D01*
X028245Y011520D02*
X028200Y011520D01*
X028699Y011475D02*
X028834Y011475D01*
X028879Y011520D01*
X028879Y011610D01*
X028834Y011655D01*
X028699Y011655D01*
X028699Y011385D01*
X028789Y011475D02*
X028879Y011385D01*
X028994Y011385D02*
X029174Y011385D01*
X028994Y011385D02*
X028994Y011655D01*
X031726Y013280D02*
X031771Y013235D01*
X031861Y013235D01*
X031906Y013280D01*
X032020Y013235D02*
X032201Y013235D01*
X032110Y013235D02*
X032110Y013505D01*
X032020Y013415D01*
X031906Y013460D02*
X031861Y013505D01*
X031771Y013505D01*
X031726Y013460D01*
X031726Y013280D01*
X032315Y013280D02*
X032315Y013460D01*
X032360Y013505D01*
X032450Y013505D01*
X032495Y013460D01*
X032315Y013280D01*
X032360Y013235D01*
X032450Y013235D01*
X032495Y013280D01*
X032495Y013460D01*
X034126Y013380D02*
X034171Y013335D01*
X034261Y013335D01*
X034306Y013380D01*
X034420Y013380D02*
X034420Y013425D01*
X034465Y013470D01*
X034556Y013470D01*
X034601Y013425D01*
X034601Y013380D01*
X034556Y013335D01*
X034465Y013335D01*
X034420Y013380D01*
X034465Y013470D02*
X034420Y013515D01*
X034420Y013560D01*
X034465Y013605D01*
X034556Y013605D01*
X034601Y013560D01*
X034601Y013515D01*
X034556Y013470D01*
X034306Y013560D02*
X034261Y013605D01*
X034171Y013605D01*
X034126Y013560D01*
X034126Y013380D01*
X035126Y014394D02*
X035126Y014529D01*
X035171Y014574D01*
X035351Y014574D01*
X035396Y014529D01*
X035396Y014394D01*
X035126Y014394D01*
X035126Y014689D02*
X035126Y014824D01*
X035171Y014869D01*
X035216Y014869D01*
X035261Y014824D01*
X035261Y014689D01*
X035261Y014824D02*
X035306Y014869D01*
X035351Y014869D01*
X035396Y014824D01*
X035396Y014689D01*
X035126Y014689D01*
X035171Y014983D02*
X035351Y014983D01*
X035396Y015028D01*
X035396Y015118D01*
X035351Y015163D01*
X035261Y015163D01*
X035261Y015073D01*
X035171Y014983D02*
X035126Y015028D01*
X035126Y015118D01*
X035171Y015163D01*
X034510Y015005D02*
X034510Y014735D01*
X034420Y014735D02*
X034601Y014735D01*
X034420Y014915D02*
X034510Y015005D01*
X034306Y015005D02*
X034126Y015005D01*
X034126Y014735D01*
X034126Y014870D02*
X034216Y014870D01*
X035126Y015618D02*
X035171Y015573D01*
X035351Y015573D01*
X035396Y015618D01*
X035396Y015708D01*
X035351Y015753D01*
X035351Y015867D02*
X035171Y015867D01*
X035126Y015912D01*
X035126Y016002D01*
X035171Y016047D01*
X035351Y016047D01*
X035396Y016002D01*
X035396Y015912D01*
X035351Y015867D01*
X035171Y015753D02*
X035126Y015708D01*
X035126Y015618D01*
X035126Y016162D02*
X035396Y016342D01*
X035126Y016342D01*
X035171Y016456D02*
X035216Y016456D01*
X035261Y016501D01*
X035261Y016592D01*
X035306Y016637D01*
X035351Y016637D01*
X035396Y016592D01*
X035396Y016501D01*
X035351Y016456D01*
X035171Y016456D02*
X035126Y016501D01*
X035126Y016592D01*
X035171Y016637D01*
X035171Y016751D02*
X035351Y016751D01*
X035396Y016796D01*
X035396Y016886D01*
X035351Y016931D01*
X035171Y016931D01*
X035126Y016886D01*
X035126Y016796D01*
X035171Y016751D01*
X035126Y017046D02*
X035396Y017046D01*
X035396Y017226D01*
X035396Y017340D02*
X035126Y017340D01*
X035126Y017521D01*
X035261Y017430D02*
X035261Y017340D01*
X035396Y017340D02*
X035396Y017521D01*
X035396Y016162D02*
X035126Y016162D01*
X032301Y015005D02*
X032210Y014960D01*
X032120Y014870D01*
X032256Y014870D01*
X032301Y014825D01*
X032301Y014780D01*
X032256Y014735D01*
X032165Y014735D01*
X032120Y014780D01*
X032120Y014870D01*
X032006Y014780D02*
X031961Y014735D01*
X031871Y014735D01*
X031826Y014780D01*
X031826Y014960D01*
X031871Y015005D01*
X031961Y015005D01*
X032006Y014960D01*
X025606Y014540D02*
X025561Y014540D01*
X025381Y014721D01*
X025336Y014721D01*
X025336Y014540D01*
X025381Y014426D02*
X025336Y014381D01*
X025336Y014291D01*
X025381Y014246D01*
X025561Y014246D01*
X025606Y014291D01*
X025606Y014381D01*
X025561Y014426D01*
X025376Y018935D02*
X025106Y018935D01*
X025196Y019025D01*
X025106Y019115D01*
X025376Y019115D01*
X025376Y019230D02*
X025376Y019320D01*
X025376Y019275D02*
X025106Y019275D01*
X025106Y019230D02*
X025106Y019320D01*
X025151Y019426D02*
X025196Y019426D01*
X025241Y019471D01*
X025241Y019561D01*
X025286Y019606D01*
X025331Y019606D01*
X025376Y019561D01*
X025376Y019471D01*
X025331Y019426D01*
X025151Y019426D02*
X025106Y019471D01*
X025106Y019561D01*
X025151Y019606D01*
X025151Y019721D02*
X025331Y019721D01*
X025376Y019766D01*
X025376Y019856D01*
X025331Y019901D01*
X025151Y019901D01*
X025106Y019856D01*
X025106Y019766D01*
X025151Y019721D01*
X024976Y019730D02*
X024796Y019910D01*
X024751Y019910D01*
X024706Y019865D01*
X024706Y019775D01*
X024751Y019730D01*
X024706Y019525D02*
X024976Y019525D01*
X024976Y019435D02*
X024976Y019615D01*
X024976Y019730D02*
X024976Y019910D01*
X024706Y019525D02*
X024796Y019435D01*
X024376Y019475D02*
X024376Y019565D01*
X024331Y019610D01*
X024376Y019724D02*
X024106Y019724D01*
X024151Y019610D02*
X024106Y019565D01*
X024106Y019475D01*
X024151Y019430D01*
X024331Y019430D01*
X024376Y019475D01*
X024331Y019315D02*
X024376Y019270D01*
X024376Y019180D01*
X024331Y019135D01*
X024241Y019180D02*
X024241Y019270D01*
X024286Y019315D01*
X024331Y019315D01*
X024241Y019180D02*
X024196Y019135D01*
X024151Y019135D01*
X024106Y019180D01*
X024106Y019270D01*
X024151Y019315D01*
X023976Y019435D02*
X023976Y019615D01*
X023976Y019525D02*
X023706Y019525D01*
X023796Y019435D01*
X023751Y019730D02*
X023706Y019775D01*
X023706Y019865D01*
X023751Y019910D01*
X023796Y019910D01*
X023841Y019865D01*
X023886Y019910D01*
X023931Y019910D01*
X023976Y019865D01*
X023976Y019775D01*
X023931Y019730D01*
X023841Y019820D02*
X023841Y019865D01*
X024106Y019904D02*
X024286Y019724D01*
X024241Y019769D02*
X024376Y019904D01*
X023176Y019859D02*
X023131Y019904D01*
X022951Y019904D01*
X022906Y019859D01*
X022906Y019724D01*
X023176Y019724D01*
X023176Y019859D01*
X023176Y019610D02*
X022906Y019610D01*
X022906Y019430D02*
X023176Y019610D01*
X023176Y019430D02*
X022906Y019430D01*
X022951Y019315D02*
X022906Y019270D01*
X022906Y019180D01*
X022951Y019135D01*
X023131Y019135D01*
X023176Y019180D01*
X023176Y019270D01*
X023131Y019315D01*
X023041Y019315D01*
X023041Y019225D01*
X022176Y019310D02*
X022086Y019220D01*
X022086Y019265D02*
X022086Y019130D01*
X022176Y019130D02*
X021906Y019130D01*
X021906Y019265D01*
X021951Y019310D01*
X022041Y019310D01*
X022086Y019265D01*
X022041Y019424D02*
X022041Y019514D01*
X021906Y019424D02*
X022176Y019424D01*
X022176Y019604D01*
X022176Y019719D02*
X021906Y019719D01*
X021906Y019899D01*
X022041Y019809D02*
X022041Y019719D01*
X021906Y019604D02*
X021906Y019424D01*
X021996Y019015D02*
X022176Y019015D01*
X022041Y019015D02*
X022041Y018835D01*
X021996Y018835D02*
X021906Y018925D01*
X021996Y019015D01*
X021996Y018835D02*
X022176Y018835D01*
X025706Y019525D02*
X025796Y019435D01*
X025706Y019525D02*
X025976Y019525D01*
X025976Y019435D02*
X025976Y019615D01*
X025976Y019730D02*
X025976Y019910D01*
X025976Y019820D02*
X025706Y019820D01*
X025796Y019730D01*
X026106Y019659D02*
X026106Y019569D01*
X026151Y019524D01*
X026196Y019524D01*
X026241Y019569D01*
X026241Y019659D01*
X026286Y019704D01*
X026331Y019704D01*
X026376Y019659D01*
X026376Y019569D01*
X026331Y019524D01*
X026331Y019410D02*
X026151Y019410D01*
X026106Y019365D01*
X026106Y019275D01*
X026151Y019230D01*
X026331Y019230D01*
X026376Y019275D01*
X026376Y019365D01*
X026331Y019410D01*
X026376Y019115D02*
X026106Y019115D01*
X026196Y019025D01*
X026106Y018935D01*
X026376Y018935D01*
X026796Y019435D02*
X026706Y019525D01*
X026976Y019525D01*
X026976Y019435D02*
X026976Y019615D01*
X026931Y019730D02*
X026751Y019910D01*
X026931Y019910D01*
X026976Y019865D01*
X026976Y019775D01*
X026931Y019730D01*
X026751Y019730D01*
X026706Y019775D01*
X026706Y019865D01*
X026751Y019910D01*
X027106Y019865D02*
X027106Y019775D01*
X027151Y019730D01*
X027196Y019730D01*
X027241Y019775D01*
X027241Y019865D01*
X027286Y019910D01*
X027331Y019910D01*
X027376Y019865D01*
X027376Y019775D01*
X027331Y019730D01*
X027331Y019615D02*
X027376Y019570D01*
X027376Y019480D01*
X027331Y019435D01*
X027241Y019480D02*
X027241Y019570D01*
X027286Y019615D01*
X027331Y019615D01*
X027241Y019480D02*
X027196Y019435D01*
X027151Y019435D01*
X027106Y019480D01*
X027106Y019570D01*
X027151Y019615D01*
X027106Y019865D02*
X027151Y019910D01*
X027906Y019770D02*
X027906Y019680D01*
X027951Y019635D01*
X027996Y019635D01*
X028041Y019680D01*
X028041Y019815D01*
X028131Y019815D02*
X027951Y019815D01*
X027906Y019770D01*
X028131Y019815D02*
X028176Y019770D01*
X028176Y019680D01*
X028131Y019635D01*
X028906Y019680D02*
X028906Y019770D01*
X028951Y019815D01*
X028996Y019815D01*
X029041Y019770D01*
X029041Y019680D01*
X028996Y019635D01*
X028951Y019635D01*
X028906Y019680D01*
X029041Y019680D02*
X029086Y019635D01*
X029131Y019635D01*
X029176Y019680D01*
X029176Y019770D01*
X029131Y019815D01*
X029086Y019815D01*
X029041Y019770D01*
X030506Y019815D02*
X030506Y019635D01*
X030506Y019815D02*
X030551Y019815D01*
X030731Y019635D01*
X030776Y019635D01*
X031506Y019815D02*
X031551Y019725D01*
X031641Y019635D01*
X031641Y019770D01*
X031686Y019815D01*
X031731Y019815D01*
X031776Y019770D01*
X031776Y019680D01*
X031731Y019635D01*
X031641Y019635D01*
X032506Y019635D02*
X032641Y019635D01*
X032596Y019725D01*
X032596Y019770D01*
X032641Y019815D01*
X032731Y019815D01*
X032776Y019770D01*
X032776Y019680D01*
X032731Y019635D01*
X032506Y019635D02*
X032506Y019815D01*
X033506Y019770D02*
X033641Y019635D01*
X033641Y019815D01*
X033776Y019770D02*
X033506Y019770D01*
X034506Y019770D02*
X034506Y019680D01*
X034551Y019635D01*
X034641Y019725D02*
X034641Y019770D01*
X034686Y019815D01*
X034731Y019815D01*
X034776Y019770D01*
X034776Y019680D01*
X034731Y019635D01*
X034641Y019770D02*
X034596Y019815D01*
X034551Y019815D01*
X034506Y019770D01*
X035506Y019770D02*
X035506Y019680D01*
X035551Y019635D01*
X035506Y019770D02*
X035551Y019815D01*
X035596Y019815D01*
X035776Y019635D01*
X035776Y019815D01*
X036306Y019725D02*
X036396Y019635D01*
X036306Y019725D02*
X036576Y019725D01*
X036576Y019635D02*
X036576Y019815D01*
X036706Y019730D02*
X036976Y019910D01*
X036976Y019730D02*
X036706Y019910D01*
X036706Y019615D02*
X036706Y019435D01*
X036706Y019525D02*
X036976Y019525D01*
X037306Y019680D02*
X037306Y019770D01*
X037351Y019815D01*
X037531Y019635D01*
X037576Y019680D01*
X037576Y019770D01*
X037531Y019815D01*
X037351Y019815D01*
X037306Y019680D02*
X037351Y019635D01*
X037531Y019635D01*
X037706Y019570D02*
X037706Y019435D01*
X037976Y019435D01*
X037886Y019435D02*
X037886Y019570D01*
X037841Y019615D01*
X037751Y019615D01*
X037706Y019570D01*
X037706Y019730D02*
X037976Y019910D01*
X037976Y019730D02*
X037706Y019910D01*
X037976Y019615D02*
X037886Y019525D01*
X026376Y019819D02*
X026376Y019909D01*
X026376Y019864D02*
X026106Y019864D01*
X026106Y019819D02*
X026106Y019909D01*
X026151Y019704D02*
X026106Y019659D01*
X037546Y011005D02*
X037681Y011005D01*
X037726Y010960D01*
X037726Y010870D01*
X037681Y010825D01*
X037546Y010825D01*
X037636Y010825D02*
X037726Y010735D01*
X037840Y010780D02*
X037885Y010735D01*
X037976Y010735D01*
X038021Y010780D01*
X038021Y010960D01*
X037976Y011005D01*
X037885Y011005D01*
X037840Y010960D01*
X037840Y010915D01*
X037885Y010870D01*
X038021Y010870D01*
X037546Y010735D02*
X037546Y011005D01*
X037576Y008604D02*
X037576Y008424D01*
X037306Y008424D01*
X037351Y008310D02*
X037306Y008265D01*
X037306Y008175D01*
X037351Y008130D01*
X037531Y008130D01*
X037576Y008175D01*
X037576Y008265D01*
X037531Y008310D01*
X037531Y008015D02*
X037576Y007970D01*
X037576Y007880D01*
X037531Y007835D01*
X037441Y007880D02*
X037441Y007970D01*
X037486Y008015D01*
X037531Y008015D01*
X037441Y007880D02*
X037396Y007835D01*
X037351Y007835D01*
X037306Y007880D01*
X037306Y007970D01*
X037351Y008015D01*
X035176Y007970D02*
X035176Y007880D01*
X035131Y007835D01*
X035041Y007880D02*
X035041Y007970D01*
X035086Y008015D01*
X035131Y008015D01*
X035176Y007970D01*
X035176Y008130D02*
X035176Y008265D01*
X035131Y008310D01*
X034951Y008310D01*
X034906Y008265D01*
X034906Y008130D01*
X035176Y008130D01*
X034951Y008015D02*
X034906Y007970D01*
X034906Y007880D01*
X034951Y007835D01*
X034996Y007835D01*
X035041Y007880D01*
X035041Y008424D02*
X035041Y008604D01*
X034996Y008604D02*
X035176Y008604D01*
X035176Y008424D02*
X034996Y008424D01*
X034906Y008514D01*
X034996Y008604D01*
X028771Y005935D02*
X028590Y005665D01*
X028771Y005665D02*
X028590Y005935D01*
X028476Y005935D02*
X028296Y005935D01*
X028386Y005935D02*
X028386Y005665D01*
X027741Y005675D02*
X027560Y005945D01*
X027446Y005900D02*
X027401Y005945D01*
X027266Y005945D01*
X027266Y005675D01*
X027266Y005765D02*
X027401Y005765D01*
X027446Y005810D01*
X027446Y005900D01*
X027356Y005765D02*
X027446Y005675D01*
X027560Y005675D02*
X027741Y005945D01*
X026215Y005910D02*
X026215Y005820D01*
X026170Y005775D01*
X026035Y005775D01*
X026035Y005685D02*
X026035Y005955D01*
X026170Y005955D01*
X026215Y005910D01*
X026125Y005775D02*
X026215Y005685D01*
X025921Y005685D02*
X025830Y005775D01*
X025740Y005685D01*
X025740Y005955D01*
X025626Y005910D02*
X025626Y005820D01*
X025581Y005775D01*
X025446Y005775D01*
X025446Y005685D02*
X025446Y005955D01*
X025581Y005955D01*
X025626Y005910D01*
X025921Y005955D02*
X025921Y005685D01*
X025190Y005685D02*
X025100Y005775D01*
X025145Y005775D02*
X025010Y005775D01*
X025010Y005685D02*
X025010Y005955D01*
X025145Y005955D01*
X025190Y005910D01*
X025190Y005820D01*
X025145Y005775D01*
X024895Y005685D02*
X024715Y005685D01*
X024715Y005955D01*
X024895Y005955D01*
X024805Y005820D02*
X024715Y005820D01*
X024601Y005775D02*
X024601Y005730D01*
X024556Y005685D01*
X024465Y005685D01*
X024420Y005730D01*
X024465Y005820D02*
X024420Y005865D01*
X024420Y005910D01*
X024465Y005955D01*
X024556Y005955D01*
X024601Y005910D01*
X024556Y005820D02*
X024601Y005775D01*
X024556Y005820D02*
X024465Y005820D01*
X024306Y005730D02*
X024261Y005685D01*
X024171Y005685D01*
X024126Y005730D01*
X024126Y005955D01*
X024306Y005955D02*
X024306Y005730D01*
X025506Y002904D02*
X025506Y002724D01*
X025506Y002814D02*
X025776Y002814D01*
X025731Y002610D02*
X025776Y002565D01*
X025776Y002475D01*
X025731Y002430D01*
X025641Y002475D02*
X025641Y002565D01*
X025686Y002610D01*
X025731Y002610D01*
X025641Y002475D02*
X025596Y002430D01*
X025551Y002430D01*
X025506Y002475D01*
X025506Y002565D01*
X025551Y002610D01*
X025551Y002315D02*
X025641Y002315D01*
X025686Y002270D01*
X025686Y002135D01*
X025776Y002135D02*
X025506Y002135D01*
X025506Y002270D01*
X025551Y002315D01*
X025686Y002225D02*
X025776Y002315D01*
X026406Y002270D02*
X026406Y002180D01*
X026451Y002135D01*
X026541Y002225D02*
X026541Y002270D01*
X026586Y002315D01*
X026631Y002315D01*
X026676Y002270D01*
X026676Y002180D01*
X026631Y002135D01*
X026541Y002270D02*
X026496Y002315D01*
X026451Y002315D01*
X026406Y002270D01*
X026631Y002430D02*
X026631Y002475D01*
X026676Y002475D01*
X026676Y002430D01*
X026631Y002430D01*
X026631Y002577D02*
X026676Y002622D01*
X026676Y002712D01*
X026631Y002757D01*
X026586Y002757D01*
X026541Y002712D01*
X026541Y002667D01*
X026541Y002712D02*
X026496Y002757D01*
X026451Y002757D01*
X026406Y002712D01*
X026406Y002622D01*
X026451Y002577D01*
X027406Y002610D02*
X027586Y002610D01*
X027676Y002520D01*
X027586Y002430D01*
X027406Y002430D01*
X027406Y002315D02*
X027406Y002135D01*
X027541Y002135D01*
X027496Y002225D01*
X027496Y002270D01*
X027541Y002315D01*
X027631Y002315D01*
X027676Y002270D01*
X027676Y002180D01*
X027631Y002135D01*
X028406Y002180D02*
X028451Y002135D01*
X028631Y002135D01*
X028676Y002180D01*
X028676Y002270D01*
X028631Y002315D01*
X028541Y002315D01*
X028541Y002225D01*
X028451Y002315D02*
X028406Y002270D01*
X028406Y002180D01*
X028406Y002430D02*
X028676Y002610D01*
X028406Y002610D01*
X028406Y002724D02*
X028406Y002859D01*
X028451Y002904D01*
X028631Y002904D01*
X028676Y002859D01*
X028676Y002724D01*
X028406Y002724D01*
X028406Y002430D02*
X028676Y002430D01*
X029406Y002430D02*
X029676Y002610D01*
X029406Y002610D01*
X029406Y002724D02*
X029406Y002859D01*
X029451Y002904D01*
X029631Y002904D01*
X029676Y002859D01*
X029676Y002724D01*
X029406Y002724D01*
X029406Y002430D02*
X029676Y002430D01*
X029631Y002315D02*
X029541Y002315D01*
X029541Y002225D01*
X029631Y002135D02*
X029676Y002180D01*
X029676Y002270D01*
X029631Y002315D01*
X029631Y002135D02*
X029451Y002135D01*
X029406Y002180D01*
X029406Y002270D01*
X029451Y002315D01*
X030406Y002315D02*
X030586Y002315D01*
X030676Y002225D01*
X030586Y002135D01*
X030406Y002135D01*
X030406Y002430D02*
X030406Y002520D01*
X030406Y002475D02*
X030676Y002475D01*
X030676Y002430D02*
X030676Y002520D01*
X030676Y002626D02*
X030406Y002626D01*
X030676Y002806D01*
X030406Y002806D01*
X032506Y002565D02*
X032551Y002610D01*
X032731Y002430D01*
X032776Y002475D01*
X032776Y002565D01*
X032731Y002610D01*
X032551Y002610D01*
X032506Y002565D02*
X032506Y002475D01*
X032551Y002430D01*
X032731Y002430D01*
X032776Y002315D02*
X032596Y002315D01*
X032506Y002225D01*
X032596Y002135D01*
X032776Y002135D01*
X032641Y002135D02*
X032641Y002315D01*
X033506Y002225D02*
X033596Y002135D01*
X033776Y002135D01*
X033641Y002135D02*
X033641Y002315D01*
X033596Y002315D02*
X033776Y002315D01*
X033776Y002430D02*
X033776Y002610D01*
X033776Y002520D02*
X033506Y002520D01*
X033596Y002430D01*
X033596Y002315D02*
X033506Y002225D01*
X034406Y002225D02*
X034496Y002315D01*
X034676Y002315D01*
X034676Y002430D02*
X034496Y002610D01*
X034451Y002610D01*
X034406Y002565D01*
X034406Y002475D01*
X034451Y002430D01*
X034541Y002315D02*
X034541Y002135D01*
X034496Y002135D02*
X034406Y002225D01*
X034496Y002135D02*
X034676Y002135D01*
X034676Y002430D02*
X034676Y002610D01*
X035406Y002565D02*
X035451Y002610D01*
X035496Y002610D01*
X035541Y002565D01*
X035586Y002610D01*
X035631Y002610D01*
X035676Y002565D01*
X035676Y002475D01*
X035631Y002430D01*
X035676Y002315D02*
X035496Y002315D01*
X035406Y002225D01*
X035496Y002135D01*
X035676Y002135D01*
X035541Y002135D02*
X035541Y002315D01*
X035451Y002430D02*
X035406Y002475D01*
X035406Y002565D01*
X035541Y002565D02*
X035541Y002520D01*
X036206Y002565D02*
X036341Y002430D01*
X036341Y002610D01*
X036476Y002565D02*
X036206Y002565D01*
X036296Y002315D02*
X036476Y002315D01*
X036341Y002315D02*
X036341Y002135D01*
X036296Y002135D02*
X036206Y002225D01*
X036296Y002315D01*
X036296Y002135D02*
X036476Y002135D01*
X036606Y002180D02*
X036606Y002270D01*
X036651Y002315D01*
X036741Y002270D02*
X036786Y002315D01*
X036831Y002315D01*
X036876Y002270D01*
X036876Y002180D01*
X036831Y002135D01*
X036741Y002180D02*
X036741Y002270D01*
X036741Y002180D02*
X036696Y002135D01*
X036651Y002135D01*
X036606Y002180D01*
X036606Y002430D02*
X036606Y002565D01*
X036651Y002610D01*
X036831Y002610D01*
X036876Y002565D01*
X036876Y002430D01*
X036606Y002430D01*
X036696Y002724D02*
X036606Y002814D01*
X036696Y002904D01*
X036876Y002904D01*
X036741Y002904D02*
X036741Y002724D01*
X036696Y002724D02*
X036876Y002724D01*
X037306Y002610D02*
X037306Y002430D01*
X037441Y002430D01*
X037396Y002520D01*
X037396Y002565D01*
X037441Y002610D01*
X037531Y002610D01*
X037576Y002565D01*
X037576Y002475D01*
X037531Y002430D01*
X037576Y002315D02*
X037396Y002315D01*
X037306Y002225D01*
X037396Y002135D01*
X037576Y002135D01*
X037441Y002135D02*
X037441Y002315D01*
X037706Y002270D02*
X037706Y002180D01*
X037751Y002135D01*
X037796Y002135D01*
X037841Y002180D01*
X037841Y002270D01*
X037886Y002315D01*
X037931Y002315D01*
X037976Y002270D01*
X037976Y002180D01*
X037931Y002135D01*
X037751Y002315D02*
X037706Y002270D01*
X037751Y002430D02*
X037931Y002430D01*
X037976Y002475D01*
X037976Y002565D01*
X037931Y002610D01*
X037976Y002724D02*
X037976Y002904D01*
X037976Y002724D02*
X037706Y002724D01*
X037751Y002610D02*
X037706Y002565D01*
X037706Y002475D01*
X037751Y002430D01*
D12*
X037851Y002010D02*
X037351Y002010D01*
X037101Y001760D01*
X036851Y002010D01*
X036351Y002010D01*
X036101Y001760D01*
X035851Y002010D01*
X035351Y002010D01*
X035101Y001760D01*
X034851Y002010D01*
X034351Y002010D01*
X034101Y001760D01*
X033851Y002010D01*
X033351Y002010D01*
X033101Y001760D01*
X032851Y002010D01*
X032351Y002010D01*
X032101Y001760D01*
X032101Y001260D01*
X032351Y001010D01*
X032851Y001010D01*
X033101Y001260D01*
X033351Y001010D01*
X033851Y001010D01*
X034101Y001260D01*
X034351Y001010D01*
X034851Y001010D01*
X035101Y001260D01*
X035351Y001010D01*
X035851Y001010D01*
X036101Y001260D01*
X036351Y001010D01*
X036851Y001010D01*
X037101Y001260D01*
X037351Y001010D01*
X037851Y001010D01*
X038101Y001260D01*
X038101Y001760D01*
X037851Y002010D01*
X037851Y004010D02*
X037351Y004010D01*
X037101Y004260D01*
X036851Y004010D01*
X036351Y004010D01*
X036101Y004260D01*
X035851Y004010D01*
X035351Y004010D01*
X035101Y004260D01*
X034851Y004010D01*
X034351Y004010D01*
X034101Y004260D01*
X034101Y004760D01*
X034351Y005010D01*
X034851Y005010D01*
X035101Y004760D01*
X035351Y005010D01*
X035851Y005010D01*
X036101Y004760D01*
X036351Y005010D01*
X036851Y005010D01*
X037101Y004760D01*
X037351Y005010D01*
X037851Y005010D01*
X038101Y004760D01*
X038101Y004260D01*
X037851Y004010D01*
X031101Y001760D02*
X031101Y001260D01*
X030851Y001010D01*
X030351Y001010D01*
X030101Y001260D01*
X029851Y001010D01*
X029351Y001010D01*
X029101Y001260D01*
X028851Y001010D01*
X028351Y001010D01*
X028101Y001260D01*
X027851Y001010D01*
X027351Y001010D01*
X027101Y001260D01*
X026851Y001010D01*
X026351Y001010D01*
X026101Y001260D01*
X025851Y001010D01*
X025351Y001010D01*
X025101Y001260D01*
X025101Y001760D01*
X025351Y002010D01*
X025851Y002010D01*
X026101Y001760D01*
X026351Y002010D01*
X026851Y002010D01*
X027101Y001760D01*
X027351Y002010D01*
X027851Y002010D01*
X028101Y001760D01*
X028351Y002010D01*
X028851Y002010D01*
X029101Y001760D01*
X029351Y002010D01*
X029851Y002010D01*
X030101Y001760D01*
X030351Y002010D01*
X030851Y002010D01*
X031101Y001760D01*
X028974Y006045D02*
X028187Y006045D01*
X028187Y006596D01*
X027964Y006636D02*
X027964Y006085D01*
X027177Y006085D01*
X027177Y006636D01*
X027335Y006912D02*
X027807Y006912D01*
X027571Y007148D01*
X027335Y006912D01*
X027295Y007148D02*
X027571Y007148D01*
X027846Y007148D01*
X027964Y007424D02*
X027964Y007975D01*
X027177Y007975D01*
X027177Y007424D01*
X026224Y007414D02*
X026224Y007965D01*
X025437Y007965D01*
X025437Y007414D01*
X025555Y007138D02*
X025831Y007138D01*
X026067Y006902D01*
X025595Y006902D01*
X025831Y007138D01*
X026106Y007138D01*
X026224Y006626D02*
X026224Y006075D01*
X025437Y006075D01*
X025437Y006626D01*
X025094Y006616D02*
X025094Y006065D01*
X024307Y006065D01*
X024307Y006616D01*
X024465Y006892D02*
X024937Y006892D01*
X024701Y007128D01*
X024465Y006892D01*
X024425Y007128D02*
X024701Y007128D01*
X024976Y007128D01*
X025094Y007404D02*
X025094Y007955D01*
X024307Y007955D01*
X024307Y007404D01*
X023461Y007060D02*
X023161Y007060D01*
X023161Y006960D01*
X023161Y007060D02*
X022861Y007060D01*
X022861Y009060D01*
X023161Y009060D01*
X023161Y009160D01*
X023161Y009060D02*
X023461Y009060D01*
X023461Y007060D01*
X023411Y008810D02*
X022911Y008810D01*
X028187Y007935D02*
X028187Y007384D01*
X028305Y007108D02*
X028581Y007108D01*
X028817Y006872D01*
X028345Y006872D01*
X028581Y007108D01*
X028856Y007108D01*
X028974Y007384D02*
X028974Y007935D01*
X028187Y007935D01*
X028974Y006596D02*
X028974Y006045D01*
X034694Y009610D02*
X035907Y009610D01*
X036301Y010110D02*
X036301Y011098D01*
X034801Y010610D02*
X034803Y010654D01*
X034809Y010698D01*
X034819Y010741D01*
X034832Y010783D01*
X034849Y010824D01*
X034870Y010863D01*
X034894Y010900D01*
X034921Y010935D01*
X034951Y010967D01*
X034984Y010997D01*
X035020Y011023D01*
X035057Y011047D01*
X035097Y011066D01*
X035138Y011083D01*
X035181Y011095D01*
X035224Y011104D01*
X035268Y011109D01*
X035312Y011110D01*
X035356Y011107D01*
X035400Y011100D01*
X035443Y011089D01*
X035485Y011075D01*
X035525Y011057D01*
X035564Y011035D01*
X035600Y011011D01*
X035634Y010983D01*
X035666Y010952D01*
X035695Y010918D01*
X035721Y010882D01*
X035743Y010844D01*
X035762Y010804D01*
X035777Y010762D01*
X035789Y010720D01*
X035797Y010676D01*
X035801Y010632D01*
X035801Y010588D01*
X035797Y010544D01*
X035789Y010500D01*
X035777Y010458D01*
X035762Y010416D01*
X035743Y010376D01*
X035721Y010338D01*
X035695Y010302D01*
X035666Y010268D01*
X035634Y010237D01*
X035600Y010209D01*
X035564Y010185D01*
X035525Y010163D01*
X035485Y010145D01*
X035443Y010131D01*
X035400Y010120D01*
X035356Y010113D01*
X035312Y010110D01*
X035268Y010111D01*
X035224Y010116D01*
X035181Y010125D01*
X035138Y010137D01*
X035097Y010154D01*
X035057Y010173D01*
X035020Y010197D01*
X034984Y010223D01*
X034951Y010253D01*
X034921Y010285D01*
X034894Y010320D01*
X034870Y010357D01*
X034849Y010396D01*
X034832Y010437D01*
X034819Y010479D01*
X034809Y010522D01*
X034803Y010566D01*
X034801Y010610D01*
X034301Y010122D02*
X034301Y011098D01*
X033792Y010880D02*
X033792Y010400D01*
X033472Y010880D01*
X033472Y010400D01*
X033117Y010400D02*
X033117Y010880D01*
X033277Y010880D02*
X032956Y010880D01*
X032761Y010800D02*
X032761Y010720D01*
X032681Y010640D01*
X032441Y010640D01*
X032441Y010400D02*
X032681Y010400D01*
X032761Y010480D01*
X032761Y010560D01*
X032681Y010640D01*
X032761Y010800D02*
X032681Y010880D01*
X032441Y010880D01*
X032441Y010400D01*
X034694Y011610D02*
X035907Y011610D01*
X033085Y013095D02*
X033085Y013725D01*
X032928Y013883D01*
X032494Y013883D01*
X031707Y013883D02*
X031117Y013883D01*
X031117Y012938D01*
X031707Y012938D01*
X032494Y012938D02*
X032928Y012938D01*
X033085Y013095D01*
X034051Y014510D02*
X034551Y014510D01*
X034551Y015110D02*
X034051Y015110D01*
X035802Y015144D02*
X035802Y014790D01*
X036786Y014514D02*
X037613Y014514D01*
X035802Y016876D02*
X035802Y017231D01*
X036786Y017506D02*
X037613Y017506D01*
X037851Y020010D02*
X037351Y020010D01*
X037101Y020260D01*
X036851Y020010D01*
X036351Y020010D01*
X036101Y020260D01*
X035851Y020010D01*
X035351Y020010D01*
X035101Y020260D01*
X034851Y020010D01*
X034351Y020010D01*
X034101Y020260D01*
X033851Y020010D01*
X033351Y020010D01*
X033101Y020260D01*
X032851Y020010D01*
X032351Y020010D01*
X032101Y020260D01*
X031851Y020010D01*
X031351Y020010D01*
X031101Y020260D01*
X030851Y020010D01*
X030351Y020010D01*
X030101Y020260D01*
X030101Y020760D01*
X030351Y021010D01*
X030851Y021010D01*
X031101Y020760D01*
X031351Y021010D01*
X031851Y021010D01*
X032101Y020760D01*
X032351Y021010D01*
X032851Y021010D01*
X033101Y020760D01*
X033351Y021010D01*
X033851Y021010D01*
X034101Y020760D01*
X034351Y021010D01*
X034851Y021010D01*
X035101Y020760D01*
X035351Y021010D01*
X035851Y021010D01*
X036101Y020760D01*
X036351Y021010D01*
X036851Y021010D01*
X037101Y020760D01*
X037351Y021010D01*
X037851Y021010D01*
X038101Y020760D01*
X038101Y020260D01*
X037851Y020010D01*
X029501Y020260D02*
X029251Y020010D01*
X028751Y020010D01*
X028501Y020260D01*
X028251Y020010D01*
X027751Y020010D01*
X027501Y020260D01*
X027251Y020010D01*
X026751Y020010D01*
X026501Y020260D01*
X026251Y020010D01*
X025751Y020010D01*
X025501Y020260D01*
X025251Y020010D01*
X024751Y020010D01*
X024501Y020260D01*
X024251Y020010D01*
X023751Y020010D01*
X023501Y020260D01*
X023251Y020010D01*
X022751Y020010D01*
X022501Y020260D01*
X022251Y020010D01*
X021751Y020010D01*
X021501Y020260D01*
X021501Y020760D01*
X021751Y021010D01*
X022251Y021010D01*
X022501Y020760D01*
X022751Y021010D01*
X023251Y021010D01*
X023501Y020760D01*
X023751Y021010D01*
X024251Y021010D01*
X024501Y020760D01*
X024751Y021010D01*
X025251Y021010D01*
X025501Y020760D01*
X025751Y021010D01*
X026251Y021010D01*
X026501Y020760D01*
X026751Y021010D01*
X027251Y021010D01*
X027501Y020760D01*
X027751Y021010D01*
X028251Y021010D01*
X028501Y020760D01*
X028751Y021010D01*
X029251Y021010D01*
X029501Y020760D01*
X029501Y020260D01*
X012985Y015383D02*
X012985Y014438D01*
X012394Y014438D01*
X011607Y014438D02*
X011174Y014438D01*
X011017Y014595D01*
X011017Y015225D01*
X011174Y015383D01*
X011607Y015383D01*
X012394Y015383D02*
X012985Y015383D01*
X012985Y012183D02*
X012394Y012183D01*
X012985Y012183D02*
X012985Y011238D01*
X012394Y011238D01*
X011607Y011238D02*
X011174Y011238D01*
X011017Y011395D01*
X011017Y012025D01*
X011174Y012183D01*
X011607Y012183D01*
X005885Y009525D02*
X005728Y009683D01*
X005294Y009683D01*
X005885Y009525D02*
X005885Y008895D01*
X005728Y008738D01*
X005294Y008738D01*
X004507Y008738D02*
X003917Y008738D01*
X003917Y009683D01*
X004507Y009683D01*
X003485Y009525D02*
X003328Y009683D01*
X002894Y009683D01*
X003485Y009525D02*
X003485Y008895D01*
X003328Y008738D01*
X002894Y008738D01*
X002107Y008738D02*
X001517Y008738D01*
X001517Y009683D01*
X002107Y009683D01*
X001491Y006876D02*
X005371Y006876D01*
X005371Y006877D02*
X005392Y006878D01*
X005413Y006876D01*
X005433Y006871D01*
X005452Y006863D01*
X005469Y006852D01*
X005485Y006839D01*
X005498Y006823D01*
X005509Y006805D01*
X005517Y006786D01*
X005522Y006766D01*
X005521Y006766D02*
X005521Y006370D01*
X005501Y006370D02*
X005471Y006368D01*
X005441Y006363D01*
X005412Y006354D01*
X005385Y006341D01*
X005359Y006326D01*
X005335Y006307D01*
X005314Y006286D01*
X005295Y006262D01*
X005280Y006236D01*
X005267Y006209D01*
X005258Y006180D01*
X005253Y006150D01*
X005251Y006120D01*
X005253Y006090D01*
X005258Y006060D01*
X005267Y006031D01*
X005280Y006004D01*
X005295Y005978D01*
X005314Y005954D01*
X005335Y005933D01*
X005359Y005914D01*
X005385Y005899D01*
X005412Y005886D01*
X005441Y005877D01*
X005471Y005872D01*
X005501Y005870D01*
X005521Y005870D02*
X005521Y005538D01*
X005521Y005533D02*
X005522Y005508D01*
X005520Y005484D01*
X005514Y005460D01*
X005505Y005438D01*
X005492Y005417D01*
X005477Y005398D01*
X005459Y005381D01*
X005439Y005367D01*
X005418Y005356D01*
X005395Y005348D01*
X005371Y005343D01*
X005371Y005344D02*
X001531Y005344D01*
X001508Y005346D01*
X001485Y005351D01*
X001463Y005360D01*
X001443Y005373D01*
X001425Y005388D01*
X001410Y005406D01*
X001397Y005426D01*
X001388Y005448D01*
X001383Y005471D01*
X001381Y005494D01*
X001381Y006726D01*
X001380Y006726D02*
X001379Y006747D01*
X001381Y006768D01*
X001386Y006788D01*
X001394Y006807D01*
X001405Y006824D01*
X001418Y006840D01*
X001434Y006853D01*
X001452Y006864D01*
X001471Y006872D01*
X001491Y006877D01*
X002041Y006420D02*
X002181Y006280D01*
X002321Y006420D01*
X002321Y006000D01*
X002501Y006000D02*
X002501Y006280D01*
X002641Y006420D01*
X002781Y006280D01*
X002781Y006000D01*
X002961Y006000D02*
X003242Y006420D01*
X003422Y006350D02*
X003492Y006420D01*
X003632Y006420D01*
X003702Y006350D01*
X003702Y006280D01*
X003422Y006000D01*
X003702Y006000D01*
X003882Y006070D02*
X003952Y006000D01*
X004092Y006000D01*
X004162Y006070D01*
X004162Y006140D01*
X004092Y006210D01*
X004022Y006210D01*
X004092Y006210D02*
X004162Y006280D01*
X004162Y006350D01*
X004092Y006420D01*
X003952Y006420D01*
X003882Y006350D01*
X004343Y006350D02*
X004413Y006420D01*
X004553Y006420D01*
X004623Y006350D01*
X004623Y006280D01*
X004343Y006000D01*
X004623Y006000D01*
X003242Y006000D02*
X002961Y006420D01*
X002781Y006210D02*
X002501Y006210D01*
X002041Y006000D02*
X002041Y006420D01*
X011601Y005060D02*
X011601Y004560D01*
X011851Y004310D01*
X011601Y004060D01*
X011601Y003560D01*
X011851Y003310D01*
X011601Y003060D01*
X011601Y002560D01*
X011851Y002310D01*
X012351Y002310D01*
X012601Y002560D01*
X012601Y003060D01*
X012351Y003310D01*
X012601Y003560D01*
X012601Y004060D01*
X012351Y004310D01*
X012601Y004560D01*
X012601Y005060D01*
X012351Y005310D01*
X011851Y005310D01*
X011601Y005060D01*
X012941Y005150D02*
X012941Y004870D01*
X013011Y004800D01*
X013151Y004800D01*
X013221Y004870D01*
X013401Y004870D02*
X013471Y004800D01*
X013611Y004800D01*
X013681Y004870D01*
X013681Y005150D01*
X013611Y005220D01*
X013471Y005220D01*
X013401Y005150D01*
X013401Y004870D01*
X013221Y005150D02*
X013151Y005220D01*
X013011Y005220D01*
X012941Y005150D01*
X013861Y005220D02*
X013861Y004800D01*
X014142Y004800D02*
X014142Y005220D01*
X014002Y005080D01*
X013861Y005220D01*
X016751Y002010D02*
X016501Y001760D01*
X016501Y001260D01*
X016751Y001010D01*
X017251Y001010D01*
X017501Y001260D01*
X017751Y001010D01*
X018251Y001010D01*
X018501Y001260D01*
X018751Y001010D01*
X019251Y001010D01*
X019501Y001260D01*
X019751Y001010D01*
X020251Y001010D01*
X020501Y001260D01*
X020501Y001760D01*
X020251Y002010D01*
X019751Y002010D01*
X019501Y001760D01*
X019251Y002010D01*
X018751Y002010D01*
X018501Y001760D01*
X018251Y002010D01*
X017751Y002010D01*
X017501Y001760D01*
X017251Y002010D01*
X016751Y002010D01*
X009751Y018960D02*
X009251Y018960D01*
X009251Y019560D02*
X009751Y019560D01*
D13*
X009588Y019310D02*
X009541Y019310D01*
X009518Y019287D01*
X009464Y019310D02*
X009371Y019310D01*
X009371Y019170D01*
X009371Y019240D02*
X009417Y019240D01*
X009518Y019170D02*
X009611Y019263D01*
X009611Y019287D01*
X009588Y019310D01*
X009611Y019170D02*
X009518Y019170D01*
X009565Y018210D02*
X009565Y018070D01*
X009611Y018070D02*
X009518Y018070D01*
X009464Y018070D02*
X009417Y018117D01*
X009441Y018117D02*
X009371Y018117D01*
X009371Y018070D02*
X009371Y018210D01*
X009441Y018210D01*
X009464Y018187D01*
X009464Y018140D01*
X009441Y018117D01*
X009518Y018163D02*
X009565Y018210D01*
X009665Y018163D02*
X009712Y018210D01*
X009712Y018070D01*
X009665Y018070D02*
X009759Y018070D01*
X009735Y017110D02*
X009759Y017087D01*
X009665Y016993D01*
X009689Y016970D01*
X009735Y016970D01*
X009759Y016993D01*
X009759Y017087D01*
X009735Y017110D02*
X009689Y017110D01*
X009665Y017087D01*
X009665Y016993D01*
X009611Y016970D02*
X009518Y016970D01*
X009565Y016970D02*
X009565Y017110D01*
X009518Y017063D01*
X009464Y017040D02*
X009441Y017017D01*
X009371Y017017D01*
X009417Y017017D02*
X009464Y016970D01*
X009464Y017040D02*
X009464Y017087D01*
X009441Y017110D01*
X009371Y017110D01*
X009371Y016970D01*
X007459Y016287D02*
X007459Y016193D01*
X007435Y016170D01*
X007365Y016170D01*
X007365Y016310D01*
X007435Y016310D01*
X007459Y016287D01*
X007311Y016310D02*
X007311Y016170D01*
X007218Y016310D01*
X007218Y016170D01*
X007164Y016193D02*
X007164Y016240D01*
X007117Y016240D01*
X007071Y016287D02*
X007071Y016193D01*
X007094Y016170D01*
X007141Y016170D01*
X007164Y016193D01*
X007164Y016287D02*
X007141Y016310D01*
X007094Y016310D01*
X007071Y016287D01*
X007071Y017170D02*
X007141Y017170D01*
X007164Y017193D01*
X007164Y017287D01*
X007141Y017310D01*
X007071Y017310D01*
X007071Y017170D01*
X007218Y017240D02*
X007311Y017240D01*
X007265Y017287D02*
X007265Y017193D01*
X007141Y017970D02*
X007164Y017993D01*
X007164Y018087D01*
X007141Y018110D01*
X007071Y018110D01*
X007071Y017970D01*
X007141Y017970D01*
X007218Y018040D02*
X007311Y018040D01*
X007288Y018970D02*
X007218Y018970D01*
X007218Y019110D01*
X007288Y019110D01*
X007311Y019087D01*
X007311Y019063D01*
X007288Y019040D01*
X007218Y019040D01*
X007164Y019017D02*
X007164Y019110D01*
X007071Y019110D02*
X007071Y019017D01*
X007117Y018970D01*
X007164Y019017D01*
X007288Y019040D02*
X007311Y019017D01*
X007311Y018993D01*
X007288Y018970D01*
X007365Y018993D02*
X007389Y018970D01*
X007435Y018970D01*
X007459Y018993D01*
X007459Y019110D01*
X007513Y019087D02*
X007513Y019063D01*
X007536Y019040D01*
X007583Y019040D01*
X007606Y019017D01*
X007606Y018993D01*
X007583Y018970D01*
X007536Y018970D01*
X007513Y018993D01*
X007513Y019087D02*
X007536Y019110D01*
X007583Y019110D01*
X007606Y019087D01*
X007365Y019110D02*
X007365Y018993D01*
X009311Y020343D02*
X009334Y020320D01*
X009381Y020320D01*
X009404Y020343D01*
X009458Y020320D02*
X009551Y020320D01*
X009505Y020320D02*
X009505Y020460D01*
X009458Y020413D01*
X009404Y020437D02*
X009381Y020460D01*
X009334Y020460D01*
X009311Y020437D01*
X009311Y020343D01*
X014251Y018753D02*
X014251Y018737D01*
X014267Y018720D01*
X014301Y018720D01*
X014317Y018703D01*
X014317Y018687D01*
X014301Y018670D01*
X014267Y018670D01*
X014251Y018687D01*
X014251Y018753D02*
X014267Y018770D01*
X014301Y018770D01*
X014317Y018753D01*
X014361Y018753D02*
X014361Y018687D01*
X014378Y018670D01*
X014411Y018670D01*
X014428Y018687D01*
X014428Y018753D01*
X014411Y018770D01*
X014378Y018770D01*
X014361Y018753D01*
X014472Y018770D02*
X014472Y018670D01*
X014538Y018670D01*
X014582Y018670D02*
X014632Y018670D01*
X014649Y018687D01*
X014649Y018753D01*
X014632Y018770D01*
X014582Y018770D01*
X014582Y018670D01*
X014578Y018570D02*
X014611Y018570D01*
X014628Y018553D01*
X014561Y018487D01*
X014578Y018470D01*
X014611Y018470D01*
X014628Y018487D01*
X014628Y018553D01*
X014578Y018570D02*
X014561Y018553D01*
X014561Y018487D01*
X014517Y018470D02*
X014484Y018503D01*
X014501Y018503D02*
X014451Y018503D01*
X014451Y018470D02*
X014451Y018570D01*
X014501Y018570D01*
X014517Y018553D01*
X014517Y018520D01*
X014501Y018503D01*
X014672Y018487D02*
X014688Y018470D01*
X014722Y018470D01*
X014738Y018487D01*
X014738Y018503D01*
X014722Y018520D01*
X014672Y018520D01*
X014672Y018487D01*
X014672Y018520D02*
X014705Y018553D01*
X014738Y018570D01*
X014759Y018670D02*
X014693Y018670D01*
X014693Y018770D01*
X014759Y018770D01*
X014803Y018770D02*
X014853Y018770D01*
X014870Y018753D01*
X014870Y018720D01*
X014853Y018703D01*
X014803Y018703D01*
X014803Y018670D02*
X014803Y018770D01*
X014836Y018703D02*
X014870Y018670D01*
X014909Y018570D02*
X014893Y018553D01*
X014893Y018487D01*
X014909Y018470D01*
X014943Y018470D01*
X014959Y018487D01*
X014959Y018553D01*
X014943Y018570D01*
X014909Y018570D01*
X015003Y018570D02*
X015070Y018470D01*
X015070Y018570D01*
X015114Y018570D02*
X015114Y018470D01*
X015180Y018470D01*
X015257Y018470D02*
X015257Y018520D01*
X015291Y018553D01*
X015291Y018570D01*
X015257Y018520D02*
X015224Y018553D01*
X015224Y018570D01*
X015185Y018670D02*
X015201Y018687D01*
X015201Y018753D01*
X015185Y018770D01*
X015151Y018770D01*
X015135Y018753D01*
X015135Y018687D01*
X015151Y018670D01*
X015185Y018670D01*
X015278Y018670D02*
X015278Y018770D01*
X015245Y018770D02*
X015312Y018770D01*
X015356Y018770D02*
X015356Y018670D01*
X015356Y018720D02*
X015422Y018720D01*
X015422Y018770D02*
X015422Y018670D01*
X015091Y018687D02*
X015074Y018670D01*
X015024Y018670D01*
X015024Y018770D01*
X015074Y018770D01*
X015091Y018753D01*
X015091Y018737D01*
X015074Y018720D01*
X015024Y018720D01*
X015074Y018720D02*
X015091Y018703D01*
X015091Y018687D01*
X015003Y018570D02*
X015003Y018470D01*
X014726Y018720D02*
X014693Y018720D01*
X014803Y017170D02*
X014803Y017070D01*
X014870Y017070D01*
X014914Y017070D02*
X014980Y017070D01*
X015024Y017070D02*
X015024Y017137D01*
X015057Y017170D01*
X015091Y017137D01*
X015091Y017070D01*
X015091Y017120D02*
X015024Y017120D01*
X014980Y017170D02*
X014914Y017170D01*
X014914Y017070D01*
X014914Y017120D02*
X014947Y017120D01*
X014964Y016970D02*
X014980Y016953D01*
X014980Y016920D01*
X014964Y016903D01*
X014914Y016903D01*
X014914Y016870D02*
X014914Y016970D01*
X014964Y016970D01*
X015024Y016970D02*
X015024Y016870D01*
X015091Y016870D01*
X015135Y016870D02*
X015135Y016970D01*
X015201Y016870D01*
X015201Y016970D01*
X015168Y017070D02*
X015201Y017103D01*
X015201Y017170D01*
X015245Y017170D02*
X015245Y017070D01*
X015312Y017070D01*
X015278Y017120D02*
X015245Y017120D01*
X015245Y017170D02*
X015312Y017170D01*
X015168Y017070D02*
X015135Y017103D01*
X015135Y017170D01*
X015091Y016970D02*
X015024Y016970D01*
X015024Y016920D02*
X015057Y016920D01*
X014870Y016887D02*
X014870Y016953D01*
X014853Y016970D01*
X014820Y016970D01*
X014803Y016953D01*
X014803Y016887D01*
X014820Y016870D01*
X014853Y016870D01*
X014870Y016887D01*
X014649Y016870D02*
X014649Y016970D01*
X014649Y016920D02*
X014582Y016920D01*
X014582Y016870D02*
X014582Y016970D01*
X014538Y016970D02*
X014472Y016970D01*
X014505Y016970D02*
X014505Y016870D01*
X014428Y016887D02*
X014428Y016953D01*
X014411Y016970D01*
X014378Y016970D01*
X014361Y016953D01*
X014361Y016887D01*
X014378Y016870D01*
X014411Y016870D01*
X014428Y016887D01*
X014317Y016887D02*
X014301Y016870D01*
X014251Y016870D01*
X014251Y016970D01*
X014301Y016970D01*
X014317Y016953D01*
X014317Y016937D01*
X014301Y016920D01*
X014251Y016920D01*
X014301Y016920D02*
X014317Y016903D01*
X014317Y016887D01*
X014317Y017070D02*
X014284Y017103D01*
X014301Y017103D02*
X014251Y017103D01*
X014251Y017070D02*
X014251Y017170D01*
X014301Y017170D01*
X014317Y017153D01*
X014317Y017120D01*
X014301Y017103D01*
X014361Y017087D02*
X014428Y017153D01*
X014428Y017087D01*
X014411Y017070D01*
X014378Y017070D01*
X014361Y017087D01*
X014361Y017153D01*
X014378Y017170D01*
X014411Y017170D01*
X014428Y017153D01*
X014472Y017170D02*
X014538Y017170D01*
X014538Y017153D01*
X014472Y017087D01*
X014472Y017070D01*
X014582Y017120D02*
X014649Y017120D01*
X014616Y017153D02*
X014616Y017087D01*
X015921Y015160D02*
X015921Y011660D01*
X022114Y003340D02*
X022091Y003317D01*
X022091Y003293D01*
X022114Y003270D01*
X022161Y003270D01*
X022184Y003247D01*
X022184Y003223D01*
X022161Y003200D01*
X022114Y003200D01*
X022091Y003223D01*
X022114Y003340D02*
X022161Y003340D01*
X022184Y003317D01*
X022285Y003340D02*
X022331Y003340D01*
X022308Y003340D02*
X022308Y003223D01*
X022285Y003200D01*
X022261Y003200D01*
X022238Y003223D01*
X022533Y003200D02*
X022533Y003340D01*
X022603Y003340D01*
X022626Y003317D01*
X022626Y003270D01*
X022603Y003247D01*
X022533Y003247D01*
X022680Y003200D02*
X022727Y003247D01*
X022773Y003200D01*
X022773Y003340D01*
X022827Y003340D02*
X022897Y003340D01*
X022921Y003317D01*
X022921Y003270D01*
X022897Y003247D01*
X022827Y003247D01*
X022827Y003200D02*
X022827Y003340D01*
X022874Y003247D02*
X022921Y003200D01*
X023122Y003223D02*
X023145Y003200D01*
X023192Y003200D01*
X023215Y003223D01*
X023215Y003340D01*
X023269Y003340D02*
X023363Y003200D01*
X023363Y003340D01*
X023417Y003340D02*
X023463Y003340D01*
X023440Y003340D02*
X023440Y003200D01*
X023417Y003200D02*
X023463Y003200D01*
X023515Y003200D02*
X023515Y003340D01*
X023608Y003340D01*
X023662Y003340D02*
X023662Y003317D01*
X023709Y003270D01*
X023709Y003200D01*
X023709Y003270D02*
X023756Y003317D01*
X023756Y003340D01*
X023562Y003270D02*
X023515Y003270D01*
X023269Y003200D02*
X023269Y003340D01*
X023122Y003340D02*
X023122Y003223D01*
X022680Y003200D02*
X022680Y003340D01*
X022484Y002040D02*
X022484Y001900D01*
X022391Y002040D01*
X022391Y001900D01*
X022538Y001923D02*
X022538Y001970D01*
X022561Y001993D01*
X022608Y001993D01*
X022631Y001970D01*
X022631Y001923D01*
X022608Y001900D01*
X022561Y001900D01*
X022538Y001923D01*
X022685Y001993D02*
X022732Y001993D01*
X022709Y002017D02*
X022709Y001923D01*
X022732Y001900D01*
X022931Y001900D02*
X022931Y002040D01*
X023001Y002040D01*
X023024Y002017D01*
X023024Y001970D01*
X023001Y001947D01*
X022931Y001947D01*
X022978Y001947D02*
X023024Y001900D01*
X023078Y001923D02*
X023078Y001970D01*
X023102Y001993D01*
X023148Y001993D01*
X023172Y001970D01*
X023172Y001947D01*
X023078Y001947D01*
X023078Y001923D02*
X023102Y001900D01*
X023148Y001900D01*
X023226Y001923D02*
X023249Y001900D01*
X023319Y001900D01*
X023319Y001853D02*
X023319Y001993D01*
X023249Y001993D01*
X023226Y001970D01*
X023226Y001923D01*
X023373Y001993D02*
X023396Y002017D01*
X023396Y002064D01*
X023470Y001993D02*
X023540Y001993D01*
X023540Y002040D02*
X023540Y001900D01*
X023470Y001900D01*
X023447Y001923D01*
X023447Y001970D01*
X023470Y001993D01*
X034408Y006560D02*
X034408Y006700D01*
X034454Y006653D01*
X034501Y006700D01*
X034501Y006560D01*
X034555Y006583D02*
X034578Y006560D01*
X034648Y006560D01*
X034648Y006653D01*
X034702Y006630D02*
X034726Y006653D01*
X034796Y006653D01*
X034772Y006607D02*
X034726Y006607D01*
X034702Y006630D01*
X034702Y006560D02*
X034772Y006560D01*
X034796Y006583D01*
X034772Y006607D01*
X034850Y006653D02*
X034896Y006653D01*
X034873Y006677D02*
X034873Y006583D01*
X034896Y006560D01*
X035095Y006560D02*
X035095Y006700D01*
X035165Y006700D01*
X035189Y006677D01*
X035189Y006630D01*
X035165Y006607D01*
X035095Y006607D01*
X035242Y006653D02*
X035266Y006653D01*
X035266Y006560D01*
X035289Y006560D02*
X035242Y006560D01*
X035341Y006583D02*
X035364Y006560D01*
X035434Y006560D01*
X035488Y006560D02*
X035488Y006700D01*
X035434Y006653D02*
X035364Y006653D01*
X035341Y006630D01*
X035341Y006583D01*
X035266Y006700D02*
X035266Y006724D01*
X035488Y006607D02*
X035558Y006560D01*
X035488Y006607D02*
X035558Y006653D01*
X034555Y006653D02*
X034555Y006583D01*
X034491Y007720D02*
X034351Y007720D01*
X034351Y007790D01*
X034374Y007813D01*
X034421Y007813D01*
X034444Y007790D01*
X034444Y007720D01*
X034444Y007767D02*
X034491Y007813D01*
X034467Y008015D02*
X034374Y008108D01*
X034467Y008108D01*
X034491Y008085D01*
X034491Y008038D01*
X034467Y008015D01*
X034374Y008015D01*
X034351Y008038D01*
X034351Y008085D01*
X034374Y008108D01*
X034467Y008162D02*
X034467Y008185D01*
X034491Y008185D01*
X034491Y008162D01*
X034467Y008162D01*
X034467Y008236D02*
X034491Y008259D01*
X034491Y008306D01*
X034467Y008329D01*
X034444Y008329D01*
X034421Y008306D01*
X034421Y008236D01*
X034467Y008236D01*
X034421Y008236D02*
X034374Y008282D01*
X034351Y008329D01*
X035527Y008308D02*
X035551Y008308D01*
X035597Y008308D02*
X035691Y008308D01*
X035691Y008285D02*
X035691Y008331D01*
X035691Y008383D02*
X035597Y008383D01*
X035597Y008453D01*
X035621Y008476D01*
X035691Y008476D01*
X035667Y008530D02*
X035691Y008554D01*
X035691Y008600D01*
X035667Y008624D01*
X035621Y008624D01*
X035597Y008600D01*
X035597Y008554D01*
X035621Y008530D01*
X035667Y008530D01*
X035597Y008308D02*
X035597Y008285D01*
X035597Y008231D02*
X035691Y008231D01*
X035691Y008161D01*
X035667Y008137D01*
X035597Y008137D01*
X035597Y008084D02*
X035597Y008014D01*
X035621Y007990D01*
X035667Y007990D01*
X035691Y008014D01*
X035691Y008084D01*
X035551Y008084D01*
X035597Y007937D02*
X035597Y007914D01*
X035644Y007867D01*
X035691Y007867D02*
X035597Y007867D01*
X035597Y007813D02*
X035691Y007813D01*
X035621Y007813D02*
X035621Y007720D01*
X035597Y007720D02*
X035551Y007767D01*
X035597Y007813D01*
X035597Y007720D02*
X035691Y007720D01*
X036751Y007720D02*
X036751Y007790D01*
X036774Y007813D01*
X036821Y007813D01*
X036844Y007790D01*
X036844Y007720D01*
X036844Y007767D02*
X036891Y007813D01*
X036891Y007720D02*
X036751Y007720D01*
X036774Y008015D02*
X036751Y008038D01*
X036751Y008085D01*
X036774Y008108D01*
X036867Y008015D01*
X036891Y008038D01*
X036891Y008085D01*
X036867Y008108D01*
X036774Y008108D01*
X036774Y008015D02*
X036867Y008015D01*
X036867Y008162D02*
X036867Y008185D01*
X036891Y008185D01*
X036891Y008162D01*
X036867Y008162D01*
X036867Y008236D02*
X036891Y008259D01*
X036891Y008306D01*
X036867Y008329D01*
X036844Y008329D01*
X036821Y008306D01*
X036821Y008236D01*
X036867Y008236D01*
X036821Y008236D02*
X036774Y008282D01*
X036751Y008329D01*
X037927Y008308D02*
X037951Y008308D01*
X037997Y008308D02*
X038091Y008308D01*
X038091Y008285D02*
X038091Y008331D01*
X038091Y008383D02*
X037997Y008383D01*
X037997Y008453D01*
X038021Y008476D01*
X038091Y008476D01*
X038067Y008530D02*
X038091Y008554D01*
X038091Y008600D01*
X038067Y008624D01*
X038021Y008624D01*
X037997Y008600D01*
X037997Y008554D01*
X038021Y008530D01*
X038067Y008530D01*
X037997Y008308D02*
X037997Y008285D01*
X037997Y008231D02*
X038091Y008231D01*
X038091Y008161D01*
X038067Y008137D01*
X037997Y008137D01*
X037997Y008084D02*
X037997Y008014D01*
X038021Y007990D01*
X038067Y007990D01*
X038091Y008014D01*
X038091Y008084D01*
X037951Y008084D01*
X037997Y007937D02*
X037997Y007914D01*
X038044Y007867D01*
X038091Y007867D02*
X037997Y007867D01*
X037997Y007813D02*
X038091Y007813D01*
X038021Y007813D02*
X038021Y007720D01*
X037997Y007720D02*
X037951Y007767D01*
X037997Y007813D01*
X037997Y007720D02*
X038091Y007720D01*
X037888Y006700D02*
X037888Y006560D01*
X037888Y006607D02*
X037958Y006560D01*
X037888Y006607D02*
X037958Y006653D01*
X037834Y006653D02*
X037764Y006653D01*
X037741Y006630D01*
X037741Y006583D01*
X037764Y006560D01*
X037834Y006560D01*
X037689Y006560D02*
X037642Y006560D01*
X037666Y006560D02*
X037666Y006653D01*
X037642Y006653D01*
X037666Y006700D02*
X037666Y006724D01*
X037589Y006677D02*
X037589Y006630D01*
X037565Y006607D01*
X037495Y006607D01*
X037495Y006560D02*
X037495Y006700D01*
X037565Y006700D01*
X037589Y006677D01*
X037296Y006653D02*
X037250Y006653D01*
X037273Y006677D02*
X037273Y006583D01*
X037296Y006560D01*
X037196Y006583D02*
X037172Y006607D01*
X037126Y006607D01*
X037102Y006630D01*
X037126Y006653D01*
X037196Y006653D01*
X037196Y006583D02*
X037172Y006560D01*
X037102Y006560D01*
X037048Y006560D02*
X037048Y006653D01*
X037048Y006560D02*
X036978Y006560D01*
X036955Y006583D01*
X036955Y006653D01*
X036901Y006700D02*
X036901Y006560D01*
X036808Y006560D02*
X036808Y006700D01*
X036854Y006653D01*
X036901Y006700D01*
D14*
X019701Y011610D02*
X019701Y015110D01*
X019699Y015154D01*
X019693Y015197D01*
X019684Y015239D01*
X019671Y015281D01*
X019654Y015321D01*
X019634Y015360D01*
X019611Y015397D01*
X019584Y015431D01*
X019555Y015464D01*
X019522Y015493D01*
X019488Y015520D01*
X019451Y015543D01*
X019412Y015563D01*
X019372Y015580D01*
X019330Y015593D01*
X019288Y015602D01*
X019245Y015608D01*
X019201Y015610D01*
X007001Y015610D01*
X006954Y015608D01*
X006907Y015603D01*
X006861Y015593D01*
X006816Y015581D01*
X006771Y015564D01*
X006729Y015545D01*
X006688Y015522D01*
X006648Y015495D01*
X006611Y015466D01*
X006577Y015434D01*
X006545Y015400D01*
X006516Y015363D01*
X006489Y015323D01*
X006466Y015282D01*
X006447Y015240D01*
X006430Y015195D01*
X006418Y015150D01*
X006408Y015104D01*
X006403Y015057D01*
X006401Y015010D01*
X006401Y013610D01*
X000801Y013610D01*
X000701Y013510D01*
X000701Y003510D01*
X007601Y003510D01*
X007601Y006710D01*
X007701Y006810D01*
X011001Y006810D01*
X011027Y006812D01*
X011053Y006817D01*
X011078Y006825D01*
X011101Y006837D01*
X011123Y006851D01*
X011142Y006869D01*
X011160Y006888D01*
X011174Y006910D01*
X011186Y006933D01*
X011194Y006958D01*
X011199Y006984D01*
X011201Y007010D01*
X011201Y009810D01*
X011203Y009860D01*
X011208Y009910D01*
X011217Y009959D01*
X011229Y010007D01*
X011245Y010055D01*
X011264Y010101D01*
X011287Y010145D01*
X011312Y010188D01*
X011341Y010229D01*
X011372Y010268D01*
X011406Y010305D01*
X011443Y010339D01*
X011482Y010370D01*
X011523Y010399D01*
X011566Y010424D01*
X011610Y010447D01*
X011656Y010466D01*
X011704Y010482D01*
X011752Y010494D01*
X011801Y010503D01*
X011851Y010508D01*
X011901Y010510D01*
X018601Y010510D01*
X018665Y010512D01*
X018729Y010517D01*
X018792Y010527D01*
X018855Y010540D01*
X018916Y010556D01*
X018977Y010576D01*
X019037Y010600D01*
X019095Y010627D01*
X019151Y010657D01*
X019205Y010691D01*
X019258Y010728D01*
X019308Y010767D01*
X019356Y010810D01*
X019401Y010855D01*
X019444Y010903D01*
X019483Y010953D01*
X019520Y011006D01*
X019554Y011060D01*
X019584Y011116D01*
X019611Y011174D01*
X019635Y011234D01*
X019655Y011295D01*
X019671Y011356D01*
X019684Y011419D01*
X019694Y011482D01*
X019699Y011546D01*
X019701Y011610D01*
X016101Y016610D02*
X013601Y016610D01*
X013601Y020410D01*
X016101Y020410D01*
X016101Y016610D01*
X003117Y020493D02*
X003023Y020400D01*
X002743Y020400D01*
X002743Y020961D01*
X003023Y020961D01*
X003117Y020867D01*
X003117Y020774D01*
X003023Y020680D01*
X002743Y020680D01*
X002509Y020587D02*
X002509Y020493D01*
X002416Y020400D01*
X002229Y020400D01*
X002135Y020493D01*
X002229Y020680D02*
X002416Y020680D01*
X002509Y020587D01*
X002509Y020867D02*
X002416Y020961D01*
X002229Y020961D01*
X002135Y020867D01*
X002135Y020774D01*
X002229Y020680D01*
X001901Y020493D02*
X001901Y020961D01*
X001528Y020961D02*
X001528Y020493D01*
X001621Y020400D01*
X001808Y020400D01*
X001901Y020493D01*
X003023Y020680D02*
X003117Y020587D01*
X003117Y020493D01*
D15*
X014061Y020080D02*
X014061Y019913D01*
X014094Y019880D01*
X014161Y019880D01*
X014194Y019913D01*
X014194Y020080D01*
X014282Y020047D02*
X014282Y020014D01*
X014315Y019980D01*
X014382Y019980D01*
X014415Y019947D01*
X014415Y019913D01*
X014382Y019880D01*
X014315Y019880D01*
X014282Y019913D01*
X014282Y020047D02*
X014315Y020080D01*
X014382Y020080D01*
X014415Y020047D01*
X014503Y020080D02*
X014503Y019880D01*
X014603Y019880D01*
X014636Y019913D01*
X014636Y019947D01*
X014603Y019980D01*
X014503Y019980D01*
X014603Y019980D02*
X014636Y020014D01*
X014636Y020047D01*
X014603Y020080D01*
X014503Y020080D01*
X014945Y020080D02*
X014945Y019880D01*
X014945Y019980D02*
X015078Y019980D01*
X015078Y020080D02*
X015078Y019880D01*
X015166Y019913D02*
X015199Y019880D01*
X015266Y019880D01*
X015299Y019913D01*
X015299Y020047D01*
X015266Y020080D01*
X015199Y020080D01*
X015166Y020047D01*
X015166Y019913D01*
X015387Y019913D02*
X015420Y019880D01*
X015487Y019880D01*
X015520Y019913D01*
X015520Y019947D01*
X015487Y019980D01*
X015420Y019980D01*
X015387Y020014D01*
X015387Y020047D01*
X015420Y020080D01*
X015487Y020080D01*
X015520Y020047D01*
X015608Y020080D02*
X015741Y020080D01*
X015674Y020080D02*
X015674Y019880D01*
X015711Y019380D02*
X015611Y019380D01*
X015611Y019180D01*
X015711Y019180D01*
X015744Y019213D01*
X015744Y019347D01*
X015711Y019380D01*
X015832Y019280D02*
X015965Y019280D01*
X015711Y017880D02*
X015611Y017880D01*
X015611Y017680D01*
X015711Y017680D01*
X015744Y017713D01*
X015744Y017847D01*
X015711Y017880D01*
X015832Y017780D02*
X015965Y017780D01*
X015898Y017847D02*
X015898Y017713D01*
D16*
X015451Y017510D02*
X015451Y018110D01*
X015449Y018127D01*
X015445Y018144D01*
X015438Y018160D01*
X015428Y018174D01*
X015415Y018187D01*
X015401Y018197D01*
X015385Y018204D01*
X015368Y018208D01*
X015351Y018210D01*
X014251Y018210D01*
X014234Y018208D01*
X014217Y018204D01*
X014201Y018197D01*
X014187Y018187D01*
X014174Y018174D01*
X014164Y018160D01*
X014157Y018144D01*
X014153Y018127D01*
X014151Y018110D01*
X014151Y017510D01*
X014153Y017493D01*
X014157Y017476D01*
X014164Y017460D01*
X014174Y017446D01*
X014187Y017433D01*
X014201Y017423D01*
X014217Y017416D01*
X014234Y017412D01*
X014251Y017410D01*
X015351Y017410D01*
X015368Y017412D01*
X015385Y017416D01*
X015401Y017423D01*
X015415Y017433D01*
X015428Y017446D01*
X015438Y017460D01*
X015445Y017476D01*
X015449Y017493D01*
X015451Y017510D01*
X015351Y018910D02*
X014251Y018910D01*
X014234Y018912D01*
X014217Y018916D01*
X014201Y018923D01*
X014187Y018933D01*
X014174Y018946D01*
X014164Y018960D01*
X014157Y018976D01*
X014153Y018993D01*
X014151Y019010D01*
X014151Y019610D01*
X014153Y019627D01*
X014157Y019644D01*
X014164Y019660D01*
X014174Y019674D01*
X014187Y019687D01*
X014201Y019697D01*
X014217Y019704D01*
X014234Y019708D01*
X014251Y019710D01*
X015351Y019710D01*
X015368Y019708D01*
X015385Y019704D01*
X015401Y019697D01*
X015415Y019687D01*
X015428Y019674D01*
X015438Y019660D01*
X015445Y019644D01*
X015449Y019627D01*
X015451Y019610D01*
X015451Y019010D01*
X015449Y018993D01*
X015445Y018976D01*
X015438Y018960D01*
X015428Y018946D01*
X015415Y018933D01*
X015401Y018923D01*
X015385Y018916D01*
X015368Y018912D01*
X015351Y018910D01*
X015931Y015160D02*
X016351Y015160D01*
X016751Y015160D01*
X017171Y015160D01*
X017194Y015158D01*
X017217Y015153D01*
X017239Y015144D01*
X017259Y015131D01*
X017277Y015116D01*
X017292Y015098D01*
X017305Y015078D01*
X017314Y015056D01*
X017319Y015033D01*
X017321Y015010D01*
X017321Y011810D01*
X017319Y011787D01*
X017314Y011764D01*
X017305Y011742D01*
X017292Y011722D01*
X017277Y011704D01*
X017259Y011689D01*
X017239Y011676D01*
X017217Y011667D01*
X017194Y011662D01*
X017171Y011660D01*
X015931Y011660D01*
X015908Y011662D01*
X015885Y011667D01*
X015863Y011676D01*
X015843Y011689D01*
X015825Y011704D01*
X015810Y011722D01*
X015797Y011742D01*
X015788Y011764D01*
X015783Y011787D01*
X015781Y011810D01*
X015781Y015010D01*
X015783Y015033D01*
X015788Y015056D01*
X015797Y015078D01*
X015810Y015098D01*
X015825Y015116D01*
X015843Y015131D01*
X015863Y015144D01*
X015885Y015153D01*
X015908Y015158D01*
X015931Y015160D01*
X016351Y015160D02*
X016353Y015133D01*
X016358Y015106D01*
X016368Y015080D01*
X016380Y015056D01*
X016396Y015034D01*
X016414Y015014D01*
X016436Y014997D01*
X016459Y014982D01*
X016484Y014972D01*
X016510Y014964D01*
X016537Y014960D01*
X016565Y014960D01*
X016592Y014964D01*
X016618Y014972D01*
X016643Y014982D01*
X016666Y014997D01*
X016688Y015014D01*
X016706Y015034D01*
X016722Y015056D01*
X016734Y015080D01*
X016744Y015106D01*
X016749Y015133D01*
X016751Y015160D01*
X016551Y014777D02*
X016551Y014550D01*
X016381Y014720D01*
X016721Y014720D01*
X016664Y014408D02*
X016437Y014408D01*
X016664Y014182D01*
X016721Y014238D01*
X016721Y014352D01*
X016664Y014408D01*
X016664Y014182D02*
X016437Y014182D01*
X016381Y014238D01*
X016381Y014352D01*
X016437Y014408D01*
X016437Y014040D02*
X016381Y013983D01*
X016381Y013870D01*
X016437Y013813D01*
X016494Y013813D01*
X016551Y013870D01*
X016551Y013983D01*
X016607Y014040D01*
X016664Y014040D01*
X016721Y013983D01*
X016721Y013870D01*
X016664Y013813D01*
X016721Y013672D02*
X016721Y013445D01*
X016381Y013445D01*
X016494Y013304D02*
X016381Y013190D01*
X016494Y013077D01*
X016721Y013077D01*
X016551Y013077D02*
X016551Y013304D01*
X016494Y013304D02*
X016721Y013304D01*
X016551Y012935D02*
X016551Y012708D01*
X016381Y012879D01*
X016721Y012879D01*
X016437Y012567D02*
X016664Y012340D01*
X016721Y012340D01*
X016381Y012340D02*
X016381Y012567D01*
X016437Y012567D01*
X026949Y014557D02*
X026949Y010463D01*
X029252Y010463D01*
X029252Y014557D01*
X026949Y014557D01*
X028688Y010847D02*
X028690Y010873D01*
X028696Y010899D01*
X028705Y010924D01*
X028718Y010947D01*
X028734Y010968D01*
X028753Y010986D01*
X028775Y011002D01*
X028798Y011014D01*
X028823Y011022D01*
X028849Y011027D01*
X028876Y011028D01*
X028902Y011025D01*
X028927Y011018D01*
X028952Y011008D01*
X028974Y010994D01*
X028995Y010977D01*
X029012Y010958D01*
X029027Y010936D01*
X029038Y010912D01*
X029046Y010886D01*
X029050Y010860D01*
X029050Y010834D01*
X029046Y010808D01*
X029038Y010782D01*
X029027Y010758D01*
X029012Y010736D01*
X028995Y010717D01*
X028974Y010700D01*
X028952Y010686D01*
X028927Y010676D01*
X028902Y010669D01*
X028876Y010666D01*
X028849Y010667D01*
X028823Y010672D01*
X028798Y010680D01*
X028775Y010692D01*
X028753Y010708D01*
X028734Y010726D01*
X028718Y010747D01*
X028705Y010770D01*
X028696Y010795D01*
X028690Y010821D01*
X028688Y010847D01*
X034051Y007510D02*
X034051Y006910D01*
X034053Y006893D01*
X034057Y006876D01*
X034064Y006860D01*
X034074Y006846D01*
X034087Y006833D01*
X034101Y006823D01*
X034117Y006816D01*
X034134Y006812D01*
X034151Y006810D01*
X035851Y006810D01*
X035868Y006812D01*
X035885Y006816D01*
X035901Y006823D01*
X035915Y006833D01*
X035928Y006846D01*
X035938Y006860D01*
X035945Y006876D01*
X035949Y006893D01*
X035951Y006910D01*
X035951Y007510D01*
X035949Y007527D01*
X035945Y007544D01*
X035938Y007560D01*
X035928Y007574D01*
X035915Y007587D01*
X035901Y007597D01*
X035885Y007604D01*
X035868Y007608D01*
X035851Y007610D01*
X034151Y007610D01*
X034134Y007608D01*
X034117Y007604D01*
X034101Y007597D01*
X034087Y007587D01*
X034074Y007574D01*
X034064Y007560D01*
X034057Y007544D01*
X034053Y007527D01*
X034051Y007510D01*
X036451Y007510D02*
X036451Y006910D01*
X036453Y006893D01*
X036457Y006876D01*
X036464Y006860D01*
X036474Y006846D01*
X036487Y006833D01*
X036501Y006823D01*
X036517Y006816D01*
X036534Y006812D01*
X036551Y006810D01*
X038251Y006810D01*
X038268Y006812D01*
X038285Y006816D01*
X038301Y006823D01*
X038315Y006833D01*
X038328Y006846D01*
X038338Y006860D01*
X038345Y006876D01*
X038349Y006893D01*
X038351Y006910D01*
X038351Y007510D01*
X038349Y007527D01*
X038345Y007544D01*
X038338Y007560D01*
X038328Y007574D01*
X038315Y007587D01*
X038301Y007597D01*
X038285Y007604D01*
X038268Y007608D01*
X038251Y007610D01*
X036551Y007610D01*
X036534Y007608D01*
X036517Y007604D01*
X036501Y007597D01*
X036487Y007587D01*
X036474Y007574D01*
X036464Y007560D01*
X036457Y007544D01*
X036453Y007527D01*
X036451Y007510D01*
X023571Y002900D02*
X023571Y002300D01*
X023569Y002283D01*
X023565Y002266D01*
X023558Y002250D01*
X023548Y002236D01*
X023535Y002223D01*
X023521Y002213D01*
X023505Y002206D01*
X023488Y002202D01*
X023471Y002200D01*
X022371Y002200D01*
X022354Y002202D01*
X022337Y002206D01*
X022321Y002213D01*
X022307Y002223D01*
X022294Y002236D01*
X022284Y002250D01*
X022277Y002266D01*
X022273Y002283D01*
X022271Y002300D01*
X022271Y002900D01*
X022273Y002917D01*
X022277Y002934D01*
X022284Y002950D01*
X022294Y002964D01*
X022307Y002977D01*
X022321Y002987D01*
X022337Y002994D01*
X022354Y002998D01*
X022371Y003000D01*
X023471Y003000D01*
X023488Y002998D01*
X023505Y002994D01*
X023521Y002987D01*
X023535Y002977D01*
X023548Y002964D01*
X023558Y002950D01*
X023565Y002934D01*
X023569Y002917D01*
X023571Y002900D01*
D17*
X023346Y007275D02*
X023346Y007469D01*
X023346Y007372D02*
X023056Y007372D01*
X023152Y007275D01*
X023056Y007570D02*
X023346Y007763D01*
X023056Y007763D01*
X023201Y007864D02*
X023201Y008058D01*
X023152Y008159D02*
X023056Y008256D01*
X023346Y008256D01*
X023346Y008352D02*
X023346Y008159D01*
X023346Y008009D02*
X023056Y008009D01*
X023201Y007864D01*
X023346Y007570D02*
X023056Y007570D01*
X023201Y008454D02*
X023201Y008647D01*
X023249Y008748D02*
X023201Y008797D01*
X023201Y008893D01*
X023249Y008942D01*
X023297Y008942D01*
X023346Y008893D01*
X023346Y008797D01*
X023297Y008748D01*
X023249Y008748D01*
X023201Y008797D02*
X023152Y008748D01*
X023104Y008748D01*
X023056Y008797D01*
X023056Y008893D01*
X023104Y008942D01*
X023152Y008942D01*
X023201Y008893D01*
X023346Y008599D02*
X023056Y008599D01*
X023201Y008454D01*
X034564Y005627D02*
X034757Y005627D01*
X034661Y005530D02*
X034661Y005724D01*
X034709Y005429D02*
X034516Y005429D01*
X034709Y005429D02*
X034806Y005333D01*
X034709Y005236D01*
X034516Y005236D01*
X035416Y005189D02*
X035464Y005141D01*
X035512Y005141D01*
X035561Y005189D01*
X035561Y005286D01*
X035609Y005335D01*
X035657Y005335D01*
X035706Y005286D01*
X035706Y005189D01*
X035657Y005141D01*
X035416Y005189D02*
X035416Y005286D01*
X035464Y005335D01*
X035416Y005436D02*
X035416Y005581D01*
X035464Y005629D01*
X035657Y005629D01*
X035706Y005581D01*
X035706Y005436D01*
X035416Y005436D01*
X035512Y005730D02*
X035416Y005827D01*
X035512Y005924D01*
X035706Y005924D01*
X035561Y005924D02*
X035561Y005730D01*
X035512Y005730D02*
X035706Y005730D01*
X036516Y005730D02*
X036806Y005730D01*
X036806Y005924D01*
X036757Y005629D02*
X036806Y005581D01*
X036806Y005484D01*
X036757Y005436D01*
X036564Y005436D01*
X036516Y005484D01*
X036516Y005581D01*
X036564Y005629D01*
X036564Y005335D02*
X036516Y005286D01*
X036516Y005189D01*
X036564Y005141D01*
X036612Y005141D01*
X036661Y005189D01*
X036661Y005286D01*
X036709Y005335D01*
X036757Y005335D01*
X036806Y005286D01*
X036806Y005189D01*
X036757Y005141D01*
X037516Y005189D02*
X037564Y005141D01*
X037757Y005141D01*
X037806Y005189D01*
X037806Y005286D01*
X037757Y005335D01*
X037661Y005335D01*
X037661Y005238D01*
X037564Y005335D02*
X037516Y005286D01*
X037516Y005189D01*
X037516Y005436D02*
X037806Y005629D01*
X037516Y005629D01*
X037516Y005730D02*
X037516Y005876D01*
X037564Y005924D01*
X037757Y005924D01*
X037806Y005876D01*
X037806Y005730D01*
X037516Y005730D01*
X037516Y005436D02*
X037806Y005436D01*
M02*
