G75*
G70*
%OFA0B0*%
%FSLAX24Y24*%
%IPPOS*%
%LPD*%
%AMOC8*
5,1,8,0,0,1.08239X$1,22.5*
%
%ADD10C,0.0110*%
%ADD11C,0.0050*%
%ADD12C,0.0080*%
%ADD13C,0.0060*%
%ADD14C,0.0030*%
D10*
X005961Y002376D02*
X005961Y002770D01*
X005961Y002573D02*
X006551Y002573D01*
X006961Y002476D02*
X006961Y002771D01*
X007059Y002870D01*
X007256Y002870D01*
X007355Y002771D01*
X007355Y002476D01*
X007551Y002476D02*
X006961Y002476D01*
X007355Y002673D02*
X007551Y002870D01*
X007551Y003121D02*
X006961Y003514D01*
X006961Y003121D02*
X007551Y003514D01*
X007961Y003405D02*
X007961Y003208D01*
X008059Y003110D01*
X008453Y003110D01*
X008551Y003208D01*
X008551Y003405D01*
X008453Y003503D01*
X008453Y003754D02*
X008059Y003754D01*
X007961Y003853D01*
X007961Y004049D01*
X008059Y004148D01*
X008453Y004148D02*
X008551Y004049D01*
X008551Y003853D01*
X008453Y003754D01*
X008059Y003503D02*
X007961Y003405D01*
X007961Y002859D02*
X008355Y002859D01*
X008551Y002662D01*
X008355Y002465D01*
X007961Y002465D01*
X008961Y002563D02*
X009059Y002465D01*
X009453Y002465D01*
X009551Y002563D01*
X009551Y002760D01*
X009453Y002859D01*
X009256Y002859D01*
X009256Y002662D01*
X009059Y002859D02*
X008961Y002760D01*
X008961Y002563D01*
X008961Y003110D02*
X009551Y003503D01*
X008961Y003503D01*
X008961Y003754D02*
X008961Y004049D01*
X009059Y004148D01*
X009453Y004148D01*
X009551Y004049D01*
X009551Y003754D01*
X008961Y003754D01*
X008961Y003110D02*
X009551Y003110D01*
X006551Y003021D02*
X005961Y003414D01*
X005961Y003021D02*
X006551Y003414D01*
X005453Y018031D02*
X005059Y018031D01*
X004961Y018130D01*
X004961Y018327D01*
X005059Y018425D01*
X005059Y018676D02*
X004961Y018774D01*
X004961Y018971D01*
X005059Y019070D01*
X005453Y019070D01*
X005551Y018971D01*
X005551Y018774D01*
X005453Y018676D01*
X005059Y018676D01*
X005453Y018425D02*
X005551Y018327D01*
X005551Y018130D01*
X005453Y018031D01*
X004551Y018676D02*
X003961Y018676D01*
X004551Y019070D01*
X003961Y019070D01*
X004059Y019321D02*
X004453Y019321D01*
X004551Y019419D01*
X004551Y019616D01*
X004453Y019714D01*
X004961Y019714D02*
X005551Y019714D01*
X005158Y019517D02*
X004961Y019714D01*
X005158Y019517D02*
X004961Y019321D01*
X005551Y019321D01*
X004059Y019321D02*
X003961Y019419D01*
X003961Y019616D01*
X004059Y019714D01*
X003451Y019714D02*
X002861Y019714D01*
X003058Y019517D01*
X002861Y019321D01*
X003451Y019321D01*
X003353Y019070D02*
X002959Y019070D01*
X002861Y018971D01*
X002861Y018774D01*
X002959Y018676D01*
X003353Y018676D01*
X003451Y018774D01*
X003451Y018971D01*
X003353Y019070D01*
X003353Y018425D02*
X003451Y018327D01*
X003451Y018130D01*
X003353Y018031D01*
X002959Y018031D01*
X002861Y018130D01*
X002861Y018327D01*
X002959Y018425D01*
D11*
X006431Y014005D02*
X006567Y014005D01*
X006612Y013960D01*
X006612Y013870D01*
X006567Y013825D01*
X006431Y013825D01*
X006431Y013735D02*
X006431Y014005D01*
X006521Y013825D02*
X006612Y013735D01*
X006726Y013735D02*
X006906Y013735D01*
X007021Y013735D02*
X007201Y013735D01*
X007315Y013735D02*
X007315Y013915D01*
X007405Y014005D01*
X007496Y013915D01*
X007496Y013735D01*
X007496Y013870D02*
X007315Y013870D01*
X007610Y013960D02*
X007700Y013870D01*
X007700Y013735D01*
X007700Y013870D02*
X007790Y013960D01*
X007790Y014005D01*
X007905Y013915D02*
X007995Y014005D01*
X007995Y013735D01*
X007905Y013735D02*
X008085Y013735D01*
X007610Y013960D02*
X007610Y014005D01*
X007021Y014005D02*
X007021Y013735D01*
X006816Y013870D02*
X006726Y013870D01*
X006726Y014005D02*
X006726Y013735D01*
X006726Y014005D02*
X006906Y014005D01*
X009340Y013553D02*
X001170Y013553D01*
X001170Y009459D01*
X009340Y009459D01*
X009340Y013553D01*
X011431Y011705D02*
X011567Y011705D01*
X011612Y011660D01*
X011612Y011480D01*
X011567Y011435D01*
X011431Y011435D01*
X011431Y011705D01*
X011726Y011615D02*
X011816Y011705D01*
X011816Y011435D01*
X011726Y011435D02*
X011906Y011435D01*
X013476Y015235D02*
X013567Y015235D01*
X013612Y015280D01*
X013726Y015280D02*
X013726Y015235D01*
X013726Y015280D02*
X013906Y015460D01*
X013906Y015505D01*
X013726Y015505D01*
X013612Y015460D02*
X013567Y015505D01*
X013476Y015505D01*
X013431Y015460D01*
X013431Y015280D01*
X013476Y015235D01*
X010006Y018035D02*
X009826Y018035D01*
X009916Y018035D02*
X009916Y018305D01*
X009826Y018215D01*
X009712Y018305D02*
X009531Y018305D01*
X009621Y018305D02*
X009621Y018035D01*
X011831Y019680D02*
X011876Y019635D01*
X011967Y019635D01*
X012012Y019680D01*
X012012Y019770D01*
X011921Y019770D01*
X011831Y019860D02*
X011831Y019680D01*
X011831Y019860D02*
X011876Y019905D01*
X011967Y019905D01*
X012012Y019860D01*
X012126Y019905D02*
X012306Y019635D01*
X012306Y019905D01*
X012421Y019905D02*
X012556Y019905D01*
X012601Y019860D01*
X012601Y019680D01*
X012556Y019635D01*
X012421Y019635D01*
X012421Y019905D01*
X012126Y019905D02*
X012126Y019635D01*
X012931Y019635D02*
X013112Y019635D01*
X013021Y019635D02*
X013021Y019905D01*
X012931Y019815D01*
X013226Y019860D02*
X013271Y019905D01*
X013361Y019905D01*
X013406Y019860D01*
X013406Y019815D01*
X013361Y019770D01*
X013406Y019725D01*
X013406Y019680D01*
X013361Y019635D01*
X013271Y019635D01*
X013226Y019680D01*
X013316Y019770D02*
X013361Y019770D01*
X015431Y019305D02*
X015431Y019035D01*
X015431Y019125D02*
X015567Y019125D01*
X015612Y019170D01*
X015612Y019260D01*
X015567Y019305D01*
X015431Y019305D01*
X015521Y019125D02*
X015612Y019035D01*
X015726Y019080D02*
X015771Y019035D01*
X015861Y019035D01*
X015906Y019080D01*
X015906Y019170D01*
X015861Y019215D01*
X015816Y019215D01*
X015726Y019170D01*
X015726Y019305D01*
X015906Y019305D01*
X017331Y019405D02*
X017331Y019180D01*
X017376Y019135D01*
X017467Y019135D01*
X017512Y019180D01*
X017512Y019405D01*
X017626Y019360D02*
X017626Y019315D01*
X017671Y019270D01*
X017761Y019270D01*
X017806Y019225D01*
X017806Y019180D01*
X017761Y019135D01*
X017671Y019135D01*
X017626Y019180D01*
X017626Y019360D02*
X017671Y019405D01*
X017761Y019405D01*
X017806Y019360D01*
X017921Y019405D02*
X017921Y019135D01*
X018101Y019135D01*
X018215Y019135D02*
X018215Y019405D01*
X018350Y019405D01*
X018396Y019360D01*
X018396Y019270D01*
X018350Y019225D01*
X018215Y019225D01*
X018305Y019225D02*
X018396Y019135D01*
X018101Y019405D02*
X017921Y019405D01*
X017921Y019270D02*
X018011Y019270D01*
X022531Y019305D02*
X022531Y019035D01*
X022531Y019125D02*
X022667Y019125D01*
X022712Y019170D01*
X022712Y019260D01*
X022667Y019305D01*
X022531Y019305D01*
X022621Y019125D02*
X022712Y019035D01*
X022826Y019035D02*
X022826Y019080D01*
X023006Y019260D01*
X023006Y019305D01*
X022826Y019305D01*
X024731Y019635D02*
X024912Y019815D01*
X024912Y019860D01*
X024867Y019905D01*
X024776Y019905D01*
X024731Y019860D01*
X024731Y019635D02*
X024912Y019635D01*
X023616Y015605D02*
X023616Y015335D01*
X023526Y015335D02*
X023706Y015335D01*
X023526Y015515D02*
X023616Y015605D01*
X023412Y015605D02*
X023231Y015605D01*
X023231Y015335D01*
X023231Y015470D02*
X023321Y015470D01*
X021506Y015425D02*
X021461Y015470D01*
X021326Y015470D01*
X021326Y015380D01*
X021371Y015335D01*
X021461Y015335D01*
X021506Y015380D01*
X021506Y015425D01*
X021416Y015560D02*
X021326Y015470D01*
X021416Y015560D02*
X021506Y015605D01*
X021212Y015560D02*
X021167Y015605D01*
X021076Y015605D01*
X021031Y015560D01*
X021031Y015380D01*
X021076Y015335D01*
X021167Y015335D01*
X021212Y015380D01*
X023476Y012905D02*
X023431Y012860D01*
X023431Y012680D01*
X023476Y012635D01*
X023567Y012635D01*
X023612Y012680D01*
X023726Y012680D02*
X023726Y012725D01*
X023771Y012770D01*
X023861Y012770D01*
X023906Y012725D01*
X023906Y012680D01*
X023861Y012635D01*
X023771Y012635D01*
X023726Y012680D01*
X023771Y012770D02*
X023726Y012815D01*
X023726Y012860D01*
X023771Y012905D01*
X023861Y012905D01*
X023906Y012860D01*
X023906Y012815D01*
X023861Y012770D01*
X023612Y012860D02*
X023567Y012905D01*
X023476Y012905D01*
X021801Y012760D02*
X021801Y012580D01*
X021756Y012535D01*
X021666Y012535D01*
X021621Y012580D01*
X021801Y012760D01*
X021756Y012805D01*
X021666Y012805D01*
X021621Y012760D01*
X021621Y012580D01*
X021506Y012535D02*
X021326Y012535D01*
X021416Y012535D02*
X021416Y012805D01*
X021326Y012715D01*
X021212Y012760D02*
X021167Y012805D01*
X021076Y012805D01*
X021031Y012760D01*
X021031Y012580D01*
X021076Y012535D01*
X021167Y012535D01*
X021212Y012580D01*
X018799Y010205D02*
X018799Y009935D01*
X018979Y009935D01*
X018685Y009935D02*
X018595Y010025D01*
X018640Y010025D02*
X018505Y010025D01*
X018505Y009935D02*
X018505Y010205D01*
X018640Y010205D01*
X018685Y010160D01*
X018685Y010070D01*
X018640Y010025D01*
X018390Y009935D02*
X018210Y009935D01*
X018390Y010115D01*
X018390Y010160D01*
X018345Y010205D01*
X018255Y010205D01*
X018210Y010160D01*
X018096Y010160D02*
X018050Y010205D01*
X017960Y010205D01*
X017915Y010160D01*
X017801Y010160D02*
X017756Y010205D01*
X017666Y010205D01*
X017621Y010160D01*
X017506Y010205D02*
X017326Y010205D01*
X017416Y010205D02*
X017416Y009935D01*
X017621Y009935D02*
X017801Y010115D01*
X017801Y010160D01*
X017915Y009980D02*
X017960Y009935D01*
X018050Y009935D01*
X018096Y009980D01*
X018096Y010025D01*
X018050Y010070D01*
X018005Y010070D01*
X018050Y010070D02*
X018096Y010115D01*
X018096Y010160D01*
X017801Y009935D02*
X017621Y009935D01*
X017212Y010205D02*
X017031Y010205D01*
X017031Y009935D01*
X017031Y010070D02*
X017121Y010070D01*
X019931Y007705D02*
X020067Y007705D01*
X020112Y007660D01*
X020112Y007570D01*
X020067Y007525D01*
X019931Y007525D01*
X019931Y007435D02*
X019931Y007705D01*
X020021Y007525D02*
X020112Y007435D01*
X020226Y007480D02*
X020226Y007570D01*
X020361Y007570D01*
X020406Y007525D01*
X020406Y007480D01*
X020361Y007435D01*
X020271Y007435D01*
X020226Y007480D01*
X020226Y007570D02*
X020316Y007660D01*
X020406Y007705D01*
X023331Y007705D02*
X023331Y007435D01*
X023331Y007525D02*
X023467Y007525D01*
X023512Y007570D01*
X023512Y007660D01*
X023467Y007705D01*
X023331Y007705D01*
X023421Y007525D02*
X023512Y007435D01*
X023626Y007435D02*
X023806Y007435D01*
X023716Y007435D02*
X023716Y007705D01*
X023626Y007615D01*
X024931Y006605D02*
X025067Y006605D01*
X025112Y006560D01*
X025112Y006470D01*
X025067Y006425D01*
X024931Y006425D01*
X024931Y006335D02*
X024931Y006605D01*
X025021Y006425D02*
X025112Y006335D01*
X025226Y006335D02*
X025406Y006515D01*
X025406Y006560D01*
X025361Y006605D01*
X025271Y006605D01*
X025226Y006560D01*
X025226Y006335D02*
X025406Y006335D01*
X024006Y005205D02*
X023826Y004935D01*
X024006Y004935D02*
X023826Y005205D01*
X023712Y005205D02*
X023531Y005205D01*
X023621Y005205D02*
X023621Y004935D01*
X025576Y002405D02*
X025531Y002360D01*
X025531Y002315D01*
X025576Y002270D01*
X025667Y002270D01*
X025712Y002225D01*
X025712Y002180D01*
X025667Y002135D01*
X025576Y002135D01*
X025531Y002180D01*
X025576Y002405D02*
X025667Y002405D01*
X025712Y002360D01*
X025826Y002405D02*
X025826Y002135D01*
X025961Y002135D01*
X026006Y002180D01*
X026006Y002360D01*
X025961Y002405D01*
X025826Y002405D01*
X026121Y002315D02*
X026121Y002135D01*
X026121Y002270D02*
X026301Y002270D01*
X026301Y002315D02*
X026301Y002135D01*
X026301Y002315D02*
X026211Y002405D01*
X026121Y002315D01*
X026531Y002315D02*
X026576Y002270D01*
X026667Y002270D01*
X026712Y002225D01*
X026712Y002180D01*
X026667Y002135D01*
X026576Y002135D01*
X026531Y002180D01*
X026531Y002315D02*
X026531Y002360D01*
X026576Y002405D01*
X026667Y002405D01*
X026712Y002360D01*
X026826Y002360D02*
X026826Y002180D01*
X026871Y002135D01*
X026961Y002135D01*
X027006Y002180D01*
X027121Y002135D02*
X027301Y002135D01*
X027121Y002135D02*
X027121Y002405D01*
X027006Y002360D02*
X026961Y002405D01*
X026871Y002405D01*
X026826Y002360D01*
X027031Y005235D02*
X027031Y005505D01*
X027167Y005505D01*
X027212Y005460D01*
X027212Y005370D01*
X027167Y005325D01*
X027031Y005325D01*
X027121Y005325D02*
X027212Y005235D01*
X027326Y005280D02*
X027371Y005235D01*
X027461Y005235D01*
X027506Y005280D01*
X027506Y005325D01*
X027461Y005370D01*
X027416Y005370D01*
X027461Y005370D02*
X027506Y005415D01*
X027506Y005460D01*
X027461Y005505D01*
X027371Y005505D01*
X027326Y005460D01*
X026746Y009440D02*
X026394Y009440D01*
X026334Y009510D02*
X026806Y009510D01*
X026806Y010140D02*
X026334Y010140D01*
X026321Y010435D02*
X026321Y010705D01*
X026456Y010705D01*
X026501Y010660D01*
X026501Y010570D01*
X026456Y010525D01*
X026321Y010525D01*
X026206Y010435D02*
X026206Y010705D01*
X026116Y010615D01*
X026026Y010705D01*
X026026Y010435D01*
X025821Y010435D02*
X025821Y010705D01*
X025731Y010705D02*
X025912Y010705D01*
X026615Y010615D02*
X026705Y010705D01*
X026705Y010435D01*
X026615Y010435D02*
X026796Y010435D01*
X026910Y010480D02*
X027090Y010660D01*
X027090Y010480D01*
X027045Y010435D01*
X026955Y010435D01*
X026910Y010480D01*
X026910Y010660D01*
X026955Y010705D01*
X027045Y010705D01*
X027090Y010660D01*
X027205Y010660D02*
X027250Y010705D01*
X027340Y010705D01*
X027385Y010660D01*
X027385Y010615D01*
X027205Y010435D01*
X027385Y010435D01*
X027831Y009960D02*
X027831Y009780D01*
X027876Y009735D01*
X027967Y009735D01*
X028012Y009780D01*
X028126Y009780D02*
X028171Y009735D01*
X028261Y009735D01*
X028306Y009780D01*
X028306Y009960D01*
X028261Y010005D01*
X028171Y010005D01*
X028126Y009960D01*
X028126Y009915D01*
X028171Y009870D01*
X028306Y009870D01*
X028012Y009960D02*
X027967Y010005D01*
X027876Y010005D01*
X027831Y009960D01*
X020206Y005205D02*
X020026Y004935D01*
X019912Y004935D02*
X019821Y005025D01*
X019867Y005025D02*
X019731Y005025D01*
X019731Y004935D02*
X019731Y005205D01*
X019867Y005205D01*
X019912Y005160D01*
X019912Y005070D01*
X019867Y005025D01*
X020026Y005205D02*
X020206Y004935D01*
X018656Y002405D02*
X018521Y002405D01*
X018521Y002135D01*
X018656Y002135D01*
X018701Y002180D01*
X018701Y002360D01*
X018656Y002405D01*
X018406Y002405D02*
X018406Y002135D01*
X018226Y002405D01*
X018226Y002135D01*
X018112Y002180D02*
X018112Y002270D01*
X018021Y002270D01*
X017931Y002360D02*
X017931Y002180D01*
X017976Y002135D01*
X018067Y002135D01*
X018112Y002180D01*
X018112Y002360D02*
X018067Y002405D01*
X017976Y002405D01*
X017931Y002360D01*
X017006Y002305D02*
X017006Y002125D01*
X016916Y002035D01*
X016826Y002125D01*
X016826Y002305D01*
X016712Y002305D02*
X016531Y002305D01*
X016531Y002170D01*
X016621Y002215D01*
X016667Y002215D01*
X016712Y002170D01*
X016712Y002080D01*
X016667Y002035D01*
X016576Y002035D01*
X016531Y002080D01*
X016154Y002080D02*
X016109Y002035D01*
X016018Y002035D01*
X015973Y002080D01*
X015871Y002080D02*
X015871Y002035D01*
X015826Y002035D01*
X015826Y002080D01*
X015871Y002080D01*
X015712Y002080D02*
X015667Y002035D01*
X015576Y002035D01*
X015531Y002080D01*
X015621Y002170D02*
X015667Y002170D01*
X015712Y002125D01*
X015712Y002080D01*
X015667Y002170D02*
X015712Y002215D01*
X015712Y002260D01*
X015667Y002305D01*
X015576Y002305D01*
X015531Y002260D01*
X015973Y002260D02*
X016018Y002305D01*
X016109Y002305D01*
X016154Y002260D01*
X016154Y002215D01*
X016109Y002170D01*
X016154Y002125D01*
X016154Y002080D01*
X016109Y002170D02*
X016063Y002170D01*
X010701Y004735D02*
X010611Y004825D01*
X010656Y004825D02*
X010521Y004825D01*
X010521Y004735D02*
X010521Y005005D01*
X010656Y005005D01*
X010701Y004960D01*
X010701Y004870D01*
X010656Y004825D01*
X010406Y004735D02*
X010406Y005005D01*
X010226Y005005D02*
X010226Y004735D01*
X010316Y004825D01*
X010406Y004735D01*
X010112Y004870D02*
X010067Y004825D01*
X009931Y004825D01*
X009931Y004735D02*
X009931Y005005D01*
X010067Y005005D01*
X010112Y004960D01*
X010112Y004870D01*
X010331Y007235D02*
X010331Y007505D01*
X010467Y007505D01*
X010512Y007460D01*
X010512Y007370D01*
X010467Y007325D01*
X010331Y007325D01*
X010421Y007325D02*
X010512Y007235D01*
X010626Y007370D02*
X010806Y007370D01*
X010761Y007235D02*
X010761Y007505D01*
X010626Y007370D01*
X004442Y004760D02*
X004397Y004805D01*
X004307Y004805D01*
X004262Y004760D01*
X004262Y004580D01*
X004307Y004535D01*
X004397Y004535D01*
X004442Y004580D01*
X004442Y004670D01*
X004352Y004670D01*
X004147Y004535D02*
X004147Y004805D01*
X003967Y004805D02*
X003967Y004535D01*
X004057Y004625D01*
X004147Y004535D01*
X003853Y004535D02*
X003853Y004805D01*
X003763Y004715D01*
X003673Y004805D01*
X003673Y004535D01*
X003263Y004805D02*
X003083Y004535D01*
X002674Y004580D02*
X002674Y004760D01*
X002494Y004580D01*
X002539Y004535D01*
X002629Y004535D01*
X002674Y004580D01*
X002494Y004580D02*
X002494Y004760D01*
X002539Y004805D01*
X002629Y004805D01*
X002674Y004760D01*
X002379Y004535D02*
X002199Y004535D01*
X002289Y004535D02*
X002289Y004805D01*
X002199Y004715D01*
X002085Y004670D02*
X001905Y004670D01*
X001790Y004670D02*
X001655Y004670D01*
X001610Y004715D01*
X001610Y004760D01*
X001655Y004805D01*
X001745Y004805D01*
X001790Y004760D01*
X001790Y004580D01*
X001745Y004535D01*
X001655Y004535D01*
X001610Y004580D01*
X001496Y004535D02*
X001315Y004535D01*
X001496Y004715D01*
X001496Y004760D01*
X001450Y004805D01*
X001360Y004805D01*
X001315Y004760D01*
X001201Y004670D02*
X001021Y004670D01*
X000906Y004535D02*
X000726Y004535D01*
X000816Y004535D02*
X000816Y004805D01*
X000726Y004715D01*
X000612Y004535D02*
X000431Y004535D01*
X000521Y004535D02*
X000521Y004805D01*
X000431Y004715D01*
X000531Y005235D02*
X000531Y005505D01*
X000667Y005505D01*
X000712Y005460D01*
X000712Y005370D01*
X000667Y005325D01*
X000531Y005325D01*
X000621Y005325D02*
X000712Y005235D01*
X000826Y005280D02*
X000826Y005370D01*
X000871Y005415D01*
X000961Y005415D01*
X001006Y005370D01*
X001006Y005325D01*
X000826Y005325D01*
X000826Y005280D02*
X000871Y005235D01*
X000961Y005235D01*
X001121Y005415D02*
X001211Y005235D01*
X001301Y005415D01*
X001415Y005415D02*
X001460Y005415D01*
X001460Y005235D01*
X001415Y005235D02*
X001505Y005235D01*
X001612Y005235D02*
X001747Y005235D01*
X001792Y005280D01*
X001747Y005325D01*
X001657Y005325D01*
X001612Y005370D01*
X001657Y005415D01*
X001792Y005415D01*
X001906Y005415D02*
X001951Y005415D01*
X001951Y005235D01*
X001906Y005235D02*
X001996Y005235D01*
X002103Y005280D02*
X002103Y005370D01*
X002148Y005415D01*
X002238Y005415D01*
X002283Y005370D01*
X002283Y005280D01*
X002238Y005235D01*
X002148Y005235D01*
X002103Y005280D01*
X001951Y005505D02*
X001951Y005550D01*
X002398Y005415D02*
X002398Y005235D01*
X002578Y005235D02*
X002578Y005370D01*
X002533Y005415D01*
X002398Y005415D01*
X002987Y005460D02*
X002987Y005280D01*
X003167Y005460D01*
X003167Y005280D01*
X003122Y005235D01*
X003032Y005235D01*
X002987Y005280D01*
X002987Y005460D02*
X003032Y005505D01*
X003122Y005505D01*
X003167Y005460D01*
X001460Y005505D02*
X001460Y005550D01*
D12*
X005706Y001260D02*
X005956Y001010D01*
X006456Y001010D01*
X006706Y001260D01*
X006956Y001010D01*
X007456Y001010D01*
X007706Y001260D01*
X007956Y001010D01*
X008456Y001010D01*
X008706Y001260D01*
X008956Y001010D01*
X009456Y001010D01*
X009706Y001260D01*
X009706Y001760D01*
X009456Y002010D01*
X008956Y002010D01*
X008706Y001760D01*
X008456Y002010D01*
X007956Y002010D01*
X007706Y001760D01*
X007456Y002010D01*
X006956Y002010D01*
X006706Y001760D01*
X006456Y002010D01*
X005956Y002010D01*
X005706Y001760D01*
X005706Y001260D01*
X009562Y005216D02*
X010113Y005216D01*
X010388Y005374D02*
X010625Y005610D01*
X010388Y005846D01*
X010388Y005374D01*
X010625Y005334D02*
X010625Y005610D01*
X010625Y005886D01*
X010900Y006004D02*
X011451Y006004D01*
X011451Y005216D01*
X010900Y005216D01*
X010113Y006004D02*
X009562Y006004D01*
X009562Y005216D01*
X013846Y006050D02*
X013846Y006470D01*
X014057Y006470D01*
X014127Y006400D01*
X014127Y006260D01*
X014057Y006190D01*
X013846Y006190D01*
X013987Y006190D02*
X014127Y006050D01*
X014307Y006120D02*
X014377Y006050D01*
X014517Y006050D01*
X014587Y006120D01*
X014587Y006400D01*
X014517Y006470D01*
X014377Y006470D01*
X014307Y006400D01*
X014307Y006330D01*
X014377Y006260D01*
X014587Y006260D01*
X014556Y002010D02*
X014306Y001760D01*
X014306Y001260D01*
X014556Y001010D01*
X015056Y001010D01*
X015306Y001260D01*
X015556Y001010D01*
X016056Y001010D01*
X016306Y001260D01*
X016556Y001010D01*
X017056Y001010D01*
X017306Y001260D01*
X017556Y001010D01*
X018056Y001010D01*
X018306Y001260D01*
X018556Y001010D01*
X019056Y001010D01*
X019306Y001260D01*
X019556Y001010D01*
X020056Y001010D01*
X020306Y001260D01*
X020306Y001760D01*
X020056Y002010D01*
X019556Y002010D01*
X019306Y001760D01*
X019056Y002010D01*
X018556Y002010D01*
X018306Y001760D01*
X018056Y002010D01*
X017556Y002010D01*
X017306Y001760D01*
X017056Y002010D01*
X016556Y002010D01*
X016306Y001760D01*
X016056Y002010D01*
X015556Y002010D01*
X015306Y001760D01*
X015056Y002010D01*
X014556Y002010D01*
X020413Y004065D02*
X020413Y004616D01*
X020531Y004892D02*
X020806Y004892D01*
X020570Y005128D01*
X021043Y005128D01*
X020806Y004892D01*
X021082Y004892D01*
X021200Y004616D02*
X021200Y004065D01*
X020413Y004065D01*
X020413Y005404D02*
X020413Y005955D01*
X021200Y005955D01*
X021200Y005404D01*
X022413Y005404D02*
X022413Y005955D01*
X023200Y005955D01*
X023200Y005404D01*
X023043Y005128D02*
X022570Y005128D01*
X022806Y004892D01*
X023043Y005128D01*
X023082Y004892D02*
X022806Y004892D01*
X022531Y004892D01*
X022413Y004616D02*
X022413Y004065D01*
X023200Y004065D01*
X023200Y004616D01*
X023056Y002010D02*
X022556Y002010D01*
X022306Y001760D01*
X022056Y002010D01*
X021556Y002010D01*
X021306Y001760D01*
X021306Y001260D01*
X021556Y001010D01*
X022056Y001010D01*
X022306Y001260D01*
X022556Y001010D01*
X023056Y001010D01*
X023306Y001260D01*
X023556Y001010D01*
X024056Y001010D01*
X024306Y001260D01*
X024556Y001010D01*
X025056Y001010D01*
X025306Y001260D01*
X025556Y001010D01*
X026056Y001010D01*
X026306Y001260D01*
X026556Y001010D01*
X027056Y001010D01*
X027306Y001260D01*
X027306Y001760D01*
X027056Y002010D01*
X026556Y002010D01*
X026306Y001760D01*
X026056Y002010D01*
X025556Y002010D01*
X025306Y001760D01*
X025056Y002010D01*
X024556Y002010D01*
X024306Y001760D01*
X024056Y002010D01*
X023556Y002010D01*
X023306Y001760D01*
X023056Y002010D01*
X011206Y010510D02*
X010906Y010510D01*
X010906Y010410D01*
X010906Y010510D02*
X010606Y010510D01*
X010606Y012510D01*
X010906Y012510D01*
X010906Y012610D01*
X010906Y012510D02*
X011206Y012510D01*
X011206Y010510D01*
X011156Y012260D02*
X010656Y012260D01*
X016962Y018116D02*
X017513Y018116D01*
X017788Y018274D02*
X018025Y018510D01*
X017788Y018746D01*
X017788Y018274D01*
X018025Y018234D02*
X018025Y018510D01*
X018025Y018786D01*
X018300Y018904D02*
X018851Y018904D01*
X018851Y018116D01*
X018300Y018116D01*
X017513Y018904D02*
X016962Y018904D01*
X016962Y018116D01*
X016956Y020010D02*
X016706Y020260D01*
X016456Y020010D01*
X015956Y020010D01*
X015706Y020260D01*
X015456Y020010D01*
X014956Y020010D01*
X014706Y020260D01*
X014456Y020010D01*
X013956Y020010D01*
X013706Y020260D01*
X013456Y020010D01*
X012956Y020010D01*
X012706Y020260D01*
X012456Y020010D01*
X011956Y020010D01*
X011706Y020260D01*
X011456Y020010D01*
X010956Y020010D01*
X010706Y020260D01*
X010706Y020760D01*
X010956Y021010D01*
X011456Y021010D01*
X011706Y020760D01*
X011956Y021010D01*
X012456Y021010D01*
X012706Y020760D01*
X012956Y021010D01*
X013456Y021010D01*
X013706Y020760D01*
X013956Y021010D01*
X014456Y021010D01*
X014706Y020760D01*
X014956Y021010D01*
X015456Y021010D01*
X015706Y020760D01*
X015956Y021010D01*
X016456Y021010D01*
X016706Y020760D01*
X016956Y021010D01*
X017456Y021010D01*
X017706Y020760D01*
X017956Y021010D01*
X018456Y021010D01*
X018706Y020760D01*
X018706Y020260D01*
X018456Y020010D01*
X017956Y020010D01*
X017706Y020260D01*
X017456Y020010D01*
X016956Y020010D01*
X019306Y020260D02*
X019306Y020760D01*
X019556Y021010D01*
X020056Y021010D01*
X020306Y020760D01*
X020556Y021010D01*
X021056Y021010D01*
X021306Y020760D01*
X021556Y021010D01*
X022056Y021010D01*
X022306Y020760D01*
X022556Y021010D01*
X023056Y021010D01*
X023306Y020760D01*
X023556Y021010D01*
X024056Y021010D01*
X024306Y020760D01*
X024556Y021010D01*
X025056Y021010D01*
X025306Y020760D01*
X025556Y021010D01*
X026056Y021010D01*
X026306Y020760D01*
X026556Y021010D01*
X027056Y021010D01*
X027306Y020760D01*
X027306Y020260D01*
X027056Y020010D01*
X026556Y020010D01*
X026306Y020260D01*
X026056Y020010D01*
X025556Y020010D01*
X025306Y020260D01*
X025056Y020010D01*
X024556Y020010D01*
X024306Y020260D01*
X024056Y020010D01*
X023556Y020010D01*
X023306Y020260D01*
X023056Y020010D01*
X022556Y020010D01*
X022306Y020260D01*
X022056Y020010D01*
X021556Y020010D01*
X021306Y020260D01*
X021056Y020010D01*
X020556Y020010D01*
X020306Y020260D01*
X020056Y020010D01*
X019556Y020010D01*
X019306Y020260D01*
X025007Y017231D02*
X025007Y016876D01*
X025991Y017506D02*
X026818Y017506D01*
X025007Y015144D02*
X025007Y014790D01*
X025991Y014514D02*
X026818Y014514D01*
X023756Y014510D02*
X023256Y014510D01*
X023256Y015110D02*
X023756Y015110D01*
X022291Y013725D02*
X022133Y013883D01*
X021700Y013883D01*
X022291Y013725D02*
X022291Y013095D01*
X022133Y012938D01*
X021700Y012938D01*
X020913Y012938D02*
X020322Y012938D01*
X020322Y013883D01*
X020913Y013883D01*
X008706Y020360D02*
X008706Y020860D01*
X008456Y021110D01*
X007956Y021110D01*
X007706Y020860D01*
X007456Y021110D01*
X006956Y021110D01*
X006706Y020860D01*
X006456Y021110D01*
X005956Y021110D01*
X005706Y020860D01*
X005456Y021110D01*
X004956Y021110D01*
X004706Y020860D01*
X004456Y021110D01*
X003956Y021110D01*
X003706Y020860D01*
X003456Y021110D01*
X002956Y021110D01*
X002706Y020860D01*
X002706Y020360D01*
X002956Y020110D01*
X003456Y020110D01*
X003706Y020360D01*
X003956Y020110D01*
X004456Y020110D01*
X004706Y020360D01*
X004956Y020110D01*
X005456Y020110D01*
X005706Y020360D01*
X005956Y020110D01*
X006456Y020110D01*
X006706Y020360D01*
X006956Y020110D01*
X007456Y020110D01*
X007706Y020360D01*
X007956Y020110D01*
X008456Y020110D01*
X008706Y020360D01*
D13*
X016155Y014557D02*
X018458Y014557D01*
X018458Y010463D01*
X016155Y010463D01*
X016155Y014557D01*
X017893Y010847D02*
X017895Y010873D01*
X017901Y010899D01*
X017910Y010924D01*
X017923Y010947D01*
X017939Y010968D01*
X017958Y010986D01*
X017980Y011002D01*
X018003Y011014D01*
X018028Y011022D01*
X018054Y011027D01*
X018081Y011028D01*
X018107Y011025D01*
X018132Y011018D01*
X018157Y011008D01*
X018179Y010994D01*
X018200Y010977D01*
X018217Y010958D01*
X018232Y010936D01*
X018243Y010912D01*
X018251Y010886D01*
X018255Y010860D01*
X018255Y010834D01*
X018251Y010808D01*
X018243Y010782D01*
X018232Y010758D01*
X018217Y010736D01*
X018200Y010717D01*
X018179Y010700D01*
X018157Y010686D01*
X018132Y010676D01*
X018107Y010669D01*
X018081Y010666D01*
X018054Y010667D01*
X018028Y010672D01*
X018003Y010680D01*
X017980Y010692D01*
X017958Y010708D01*
X017939Y010726D01*
X017923Y010747D01*
X017910Y010770D01*
X017901Y010795D01*
X017895Y010821D01*
X017893Y010847D01*
D14*
X011091Y010822D02*
X010801Y010822D01*
X010898Y010725D01*
X011091Y010725D02*
X011091Y010919D01*
X011091Y011020D02*
X010801Y011020D01*
X011091Y011213D01*
X010801Y011213D01*
X010946Y011314D02*
X010801Y011459D01*
X011091Y011459D01*
X011091Y011609D02*
X011091Y011802D01*
X011091Y011706D02*
X010801Y011706D01*
X010898Y011609D01*
X010946Y011508D02*
X010946Y011314D01*
X010946Y011904D02*
X010946Y012097D01*
X010898Y012198D02*
X010850Y012198D01*
X010801Y012247D01*
X010801Y012343D01*
X010850Y012392D01*
X010898Y012392D01*
X010946Y012343D01*
X010946Y012247D01*
X010898Y012198D01*
X010946Y012247D02*
X010995Y012198D01*
X011043Y012198D01*
X011091Y012247D01*
X011091Y012343D01*
X011043Y012392D01*
X010995Y012392D01*
X010946Y012343D01*
X010801Y012049D02*
X010946Y011904D01*
X011091Y012049D02*
X010801Y012049D01*
M02*
