%
M48
M72
T01C0.0200
T02C0.0320
T03C0.0354
T04C0.0400
T05C0.0472
T06C0.0591
T07C0.0910
%
T01
X7101Y4510
X6101Y8310
X4701Y8310
X16501Y12410
X21001Y13310
X23252Y12009
X24101Y12010
X24101Y13410
X24601Y14410
X28501Y12890
X28901Y14490
X30001Y17410
X30001Y18410
X33001Y18410
X33001Y17410
X36301Y12110
X31001Y8110
X31601Y7210
X36001Y6410
X38801Y7210
X33601Y3610
X26701Y4510
X26701Y6430
X21601Y3710
X20501Y3710
X18601Y4310
X19001Y14910
X16801Y17410
X16801Y18310
X21001Y19310
X10901Y19310
T02
X8801Y14010
X7801Y14010
X8301Y13260
X8301Y11960
X8801Y11210
X7801Y11210
T03
X23161Y9560
X23161Y6560
X37101Y15144
X37101Y16876
T04
X37601Y20510
X36601Y20510
X35601Y20510
X34601Y20510
X33601Y20510
X32601Y20510
X31601Y20510
X30601Y20510
X29001Y20510
X28001Y20510
X27001Y20510
X26001Y20510
X25001Y20510
X24001Y20510
X23001Y20510
X22001Y20510
X34601Y4510
X35601Y4510
X36601Y4510
X37601Y4510
X37601Y1510
X36601Y1510
X35601Y1510
X34601Y1510
X33601Y1510
X32601Y1510
X30601Y1510
X29601Y1510
X28601Y1510
X27601Y1510
X26601Y1510
X25601Y1510
X20001Y1510
X19001Y1510
X18001Y1510
X17001Y1510
X13201Y1510
X12201Y1510
X11201Y1510
T05
X21982Y6560
X21982Y9552
T06
X17966Y9552
X14934Y9552
X15958Y6560
T07
X4701Y15025
X4701Y20195
M30
