G75*
G70*
%OFA0B0*%
%FSLAX24Y24*%
%IPPOS*%
%LPD*%
%AMOC8*
5,1,8,0,0,1.08239X$1,22.5*
%
%ADD10C,0.0454*%
%ADD11R,0.0840X0.0840*%
%ADD12C,0.0840*%
%ADD13C,0.0986*%
%ADD14C,0.0809*%
%ADD15C,0.0500*%
D10*
X026306Y015144D03*
X026306Y016876D03*
D11*
X006206Y001510D03*
X018206Y020510D03*
X026806Y020510D03*
D12*
X025806Y020510D03*
X024806Y020510D03*
X023806Y020510D03*
X022806Y020510D03*
X021806Y020510D03*
X020806Y020510D03*
X019806Y020510D03*
X017206Y020510D03*
X016206Y020510D03*
X015206Y020510D03*
X014206Y020510D03*
X013206Y020510D03*
X012206Y020510D03*
X011206Y020510D03*
X008206Y020610D03*
X007206Y020610D03*
X006206Y020610D03*
X005206Y020610D03*
X004206Y020610D03*
X003206Y020610D03*
X010906Y013010D03*
X010906Y010010D03*
X009206Y001510D03*
X008206Y001510D03*
X007206Y001510D03*
X014806Y001510D03*
X015806Y001510D03*
X016806Y001510D03*
X017806Y001510D03*
X018806Y001510D03*
X019806Y001510D03*
X021806Y001510D03*
X022806Y001510D03*
X023806Y001510D03*
X024806Y001510D03*
X025806Y001510D03*
X026806Y001510D03*
D13*
X004832Y013002D03*
X001800Y013002D03*
X002824Y010010D03*
D14*
X008847Y010010D03*
X008847Y013002D03*
D15*
X015306Y014610D03*
X016906Y015210D03*
X017806Y014110D03*
X016906Y013110D03*
X016906Y012010D03*
X016406Y010010D03*
X020006Y011210D03*
X020806Y009710D03*
X022806Y008910D03*
X024906Y008110D03*
X026606Y008810D03*
X024906Y009825D03*
X026606Y004510D03*
X028006Y004010D03*
X017806Y002810D03*
X016806Y003410D03*
X015806Y004010D03*
X010806Y001510D03*
X015306Y016810D03*
X012306Y018510D03*
X021206Y018510D03*
M02*
