%
M48
M72
T01C0.0240
T02C0.0354
T03C0.0400
T04C0.0472
T05C0.0591
%
T01
X10806Y1510
X15806Y4010
X16806Y3410
X17806Y2810
X24906Y8110
X26606Y8810
X24906Y9825
X22806Y8910
X20806Y9710
X20006Y11210
X16906Y12010
X16906Y13110
X17806Y14110
X16906Y15210
X15306Y14610
X15306Y16810
X12306Y18510
X21206Y18510
X16406Y10010
X26606Y4510
X28006Y4010
T02
X26306Y15144
X26306Y16876
X10906Y13010
X10906Y10010
T03
X6206Y1510
X7206Y1510
X8206Y1510
X9206Y1510
X14806Y1510
X15806Y1510
X16806Y1510
X17806Y1510
X18806Y1510
X19806Y1510
X21806Y1510
X22806Y1510
X23806Y1510
X24806Y1510
X25806Y1510
X26806Y1510
X26806Y20510
X25806Y20510
X24806Y20510
X23806Y20510
X22806Y20510
X21806Y20510
X20806Y20510
X19806Y20510
X18206Y20510
X17206Y20510
X16206Y20510
X15206Y20510
X14206Y20510
X13206Y20510
X12206Y20510
X11206Y20510
X8206Y20610
X7206Y20610
X6206Y20610
X5206Y20610
X4206Y20610
X3206Y20610
T04
X8847Y13002
X8847Y10010
T05
X4832Y13002
X1800Y13002
X2824Y10010
M30
