G75*
G70*
%OFA0B0*%
%FSLAX24Y24*%
%IPPOS*%
%LPD*%
%AMOC8*
5,1,8,0,0,1.08239X$1,22.5*
%
%ADD10R,0.0650X0.0237*%
%ADD11R,0.1084X0.0297*%
%ADD12R,0.1084X0.0887*%
%ADD13C,0.0454*%
%ADD14R,0.0257X0.0198*%
%ADD15R,0.0572X0.0651*%
%ADD16R,0.0809X0.0730*%
%ADD17R,0.0730X0.0809*%
%ADD18R,0.0840X0.0840*%
%ADD19C,0.0840*%
%ADD20R,0.0651X0.0572*%
%ADD21R,0.0494X0.0651*%
%ADD22C,0.0986*%
%ADD23C,0.0809*%
%ADD24R,0.0494X0.0809*%
%ADD25R,0.0651X0.0730*%
%ADD26C,0.0500*%
D10*
X015867Y010847D03*
X015867Y011103D03*
X015867Y011359D03*
X015867Y011614D03*
X015867Y011870D03*
X015867Y012126D03*
X015867Y012382D03*
X015867Y012638D03*
X015867Y012894D03*
X015867Y013150D03*
X015867Y013406D03*
X015867Y013662D03*
X015867Y013918D03*
X015867Y014173D03*
X018746Y014173D03*
X018746Y013918D03*
X018746Y013662D03*
X018746Y013406D03*
X018746Y013150D03*
X018746Y012894D03*
X018746Y012638D03*
X018746Y012382D03*
X018746Y012126D03*
X018746Y011870D03*
X018746Y011614D03*
X018746Y011359D03*
X018746Y011103D03*
X018746Y010847D03*
D11*
X025322Y015380D03*
X025322Y015695D03*
X025322Y016010D03*
X025322Y016325D03*
X025322Y016640D03*
D12*
X025322Y017782D03*
X027488Y017782D03*
X027488Y014238D03*
X025322Y014238D03*
D13*
X026306Y015144D03*
X026306Y016876D03*
D14*
X026310Y010022D03*
X026310Y009825D03*
X026306Y009628D03*
X026830Y009628D03*
X026830Y009825D03*
X026830Y010022D03*
D15*
X018497Y018510D03*
X017316Y018510D03*
X011097Y005610D03*
X009916Y005610D03*
D16*
X013706Y013659D03*
X013706Y014761D03*
X020806Y008061D03*
X020806Y006959D03*
X022806Y006959D03*
X022806Y008061D03*
X025806Y007061D03*
X025806Y005959D03*
X027306Y005959D03*
X027306Y007061D03*
X028006Y008059D03*
X028006Y009161D03*
D17*
X024158Y013410D03*
X023055Y013410D03*
X021858Y014810D03*
X020755Y014810D03*
X022155Y018510D03*
X023258Y018510D03*
X016058Y018510D03*
X014955Y018510D03*
X011058Y006810D03*
X009955Y006810D03*
X013755Y005510D03*
X014858Y005510D03*
D18*
X006206Y001510D03*
X018206Y020510D03*
X026806Y020510D03*
D19*
X025806Y020510D03*
X024806Y020510D03*
X023806Y020510D03*
X022806Y020510D03*
X021806Y020510D03*
X020806Y020510D03*
X019806Y020510D03*
X017206Y020510D03*
X016206Y020510D03*
X015206Y020510D03*
X014206Y020510D03*
X013206Y020510D03*
X012206Y020510D03*
X011206Y020510D03*
X008206Y020610D03*
X007206Y020610D03*
X006206Y020610D03*
X005206Y020610D03*
X004206Y020610D03*
X003206Y020610D03*
X010906Y013010D03*
X010906Y010010D03*
X009206Y001510D03*
X008206Y001510D03*
X007206Y001510D03*
X014806Y001510D03*
X015806Y001510D03*
X016806Y001510D03*
X017806Y001510D03*
X018806Y001510D03*
X019806Y001510D03*
X021806Y001510D03*
X022806Y001510D03*
X023806Y001510D03*
X024806Y001510D03*
X025806Y001510D03*
X026806Y001510D03*
D20*
X022806Y004420D03*
X022806Y005601D03*
X020806Y005601D03*
X020806Y004420D03*
D21*
X010806Y017677D03*
X010432Y018543D03*
X011180Y018543D03*
D22*
X004832Y013002D03*
X001800Y013002D03*
X002824Y010010D03*
D23*
X008847Y010010D03*
X008847Y013002D03*
D24*
X022955Y014810D03*
X024058Y014810D03*
D25*
X021858Y013410D03*
X020755Y013410D03*
D26*
X020006Y011210D03*
X020806Y009710D03*
X022806Y008910D03*
X024906Y008110D03*
X026606Y008810D03*
X024906Y009825D03*
X026606Y004510D03*
X028006Y004010D03*
X017806Y002810D03*
X016806Y003410D03*
X015806Y004010D03*
X010806Y001510D03*
X016406Y010010D03*
X016906Y012010D03*
X016906Y013110D03*
X017806Y014110D03*
X016906Y015210D03*
X015306Y014610D03*
X015306Y016810D03*
X012306Y018510D03*
X021206Y018510D03*
M02*
